<svg width="61" height="61" viewBox="0 0 61 61" fill="none" xmlns="http://www.w3.org/2000/svg">
<path d="M50.9903 47.5227C53.7279 44.2289 55.6319 40.3242 56.5413 36.1389C57.4507 31.9537 57.3387 27.6109 56.2147 23.4781C55.0908 19.3452 52.9879 15.5439 50.0842 12.3956C47.1804 9.24737 43.561 6.84478 39.5323 5.39113C35.5036 3.93749 31.1841 3.47553 26.9391 4.04436C22.6941 4.61318 18.6485 6.19605 15.1446 8.65906C11.6407 11.1221 8.78161 14.3928 6.80911 18.1944C4.83661 21.9961 3.80876 26.217 3.81251 30.4999C3.81411 36.726 6.00817 42.7528 10.0097 47.5227L9.9716 47.5551C10.105 47.7153 10.2575 47.8525 10.3948 48.0107C10.5664 48.2071 10.7513 48.392 10.9285 48.5826C11.4597 49.1634 12.0126 49.7162 12.587 50.241C12.7649 50.3986 12.9428 50.5524 13.1207 50.7023C13.7307 51.2297 14.3598 51.7266 15.0079 52.193C15.0918 52.2502 15.168 52.3246 15.2519 52.3837V52.3608C19.7164 55.5029 25.0425 57.1892 30.5019 57.1892C35.9613 57.1892 41.2874 55.5029 45.7519 52.3608V52.3837C45.8358 52.3246 45.9101 52.2502 45.9959 52.193C46.644 51.7254 47.2731 51.2285 47.8831 50.7023C48.061 50.5511 48.2389 50.3973 48.4169 50.241C48.99 49.7162 49.5428 49.1634 50.0753 48.5826C50.2526 48.392 50.4356 48.2071 50.609 48.0107C50.7444 47.8525 50.8988 47.7152 51.0322 47.5532L50.9903 47.5227ZM30.5 15.2499C32.1966 15.2499 33.8551 15.753 35.2658 16.6956C36.6764 17.6382 37.7759 18.9779 38.4252 20.5453C39.0744 22.1128 39.2443 23.8375 38.9133 25.5015C38.5823 27.1655 37.7653 28.694 36.5657 29.8937C35.366 31.0934 33.8375 31.9103 32.1735 32.2413C30.5095 32.5723 28.7848 32.4024 27.2173 31.7532C25.6499 31.1039 24.3101 30.0044 23.3676 28.5938C22.425 27.1831 21.9219 25.5246 21.9219 23.828C21.9219 21.553 22.8256 19.3711 24.4344 17.7624C26.0431 16.1537 28.2249 15.2499 30.5 15.2499ZM15.2634 47.5227C15.2964 45.0198 16.3136 42.6304 18.0948 40.8717C19.876 39.1129 22.2781 38.1262 24.7813 38.1249H36.2188C38.7219 38.1262 41.124 39.1129 42.9052 40.8717C44.6864 42.6304 45.7036 45.0198 45.7367 47.5227C41.556 51.2901 36.1278 53.3751 30.5 53.3751C24.8723 53.3751 19.4441 51.2901 15.2634 47.5227Z" fill="#F8F8F8"/>
</svg>
