<svg width="1498" height="653" viewBox="0 0 1498 653" fill="none" xmlns="http://www.w3.org/2000/svg">
<rect x="60" y="1" width="1377" height="308" rx="29" stroke="#1E1E1E" stroke-width="2" stroke-dasharray="10 10"/>
<rect x="60" y="344" width="531" height="308" rx="29" stroke="#1E1E1E" stroke-width="2" stroke-dasharray="10 10"/>
<rect x="651" y="344" width="786" height="308" rx="29" stroke="#1E1E1E" stroke-width="2" stroke-dasharray="10 10"/>
<circle cx="143" cy="155" r="72" fill="url(#paint0_linear_49_220)"/>
<path d="M119.237 165.57C117.197 165.57 115.477 165.18 114.077 164.4C112.677 163.62 111.607 162.53 110.867 161.13C110.147 159.71 109.787 158.05 109.787 156.15V143.1H114.047V156.39C114.047 157.43 114.247 158.35 114.647 159.15C115.047 159.93 115.627 160.54 116.387 160.98C117.167 161.4 118.117 161.61 119.237 161.61C120.337 161.61 121.267 161.4 122.027 160.98C122.807 160.54 123.387 159.93 123.767 159.15C124.167 158.37 124.367 157.45 124.367 156.39V143.1H128.627V156.15C128.627 158.05 128.267 159.71 127.547 161.13C126.847 162.53 125.797 163.62 124.397 164.4C122.997 165.18 121.277 165.57 119.237 165.57ZM139.195 165.51C136.955 165.51 135.195 165.04 133.915 164.1C132.655 163.14 131.995 161.82 131.935 160.14H135.685C135.745 160.7 136.055 161.21 136.615 161.67C137.175 162.13 138.055 162.36 139.255 162.36C140.255 162.36 141.045 162.18 141.625 161.82C142.225 161.46 142.525 160.97 142.525 160.35C142.525 159.81 142.295 159.38 141.835 159.06C141.395 158.74 140.635 158.53 139.555 158.43L138.115 158.28C136.295 158.08 134.895 157.56 133.915 156.72C132.935 155.88 132.445 154.76 132.445 153.36C132.445 152.24 132.725 151.3 133.285 150.54C133.845 149.78 134.615 149.21 135.595 148.83C136.595 148.43 137.735 148.23 139.015 148.23C141.015 148.23 142.635 148.67 143.875 149.55C145.115 150.43 145.765 151.72 145.825 153.42H142.075C142.035 152.86 141.755 152.38 141.235 151.98C140.715 151.58 139.965 151.38 138.985 151.38C138.105 151.38 137.425 151.55 136.945 151.89C136.465 152.23 136.225 152.67 136.225 153.21C136.225 153.73 136.415 154.13 136.795 154.41C137.195 154.69 137.835 154.88 138.715 154.98L140.155 155.13C142.075 155.33 143.575 155.86 144.655 156.72C145.755 157.58 146.305 158.74 146.305 160.2C146.305 161.28 146.005 162.22 145.405 163.02C144.825 163.8 144.005 164.41 142.945 164.85C141.885 165.29 140.635 165.51 139.195 165.51ZM157.04 165.57C155.64 165.57 154.41 165.33 153.35 164.85C152.31 164.37 151.44 163.73 150.74 162.93C150.06 162.11 149.54 161.2 149.18 160.2C148.84 159.2 148.67 158.18 148.67 157.14V156.57C148.67 155.49 148.84 154.45 149.18 153.45C149.54 152.43 150.06 151.53 150.74 150.75C151.44 149.95 152.3 149.32 153.32 148.86C154.34 148.38 155.52 148.14 156.86 148.14C158.62 148.14 160.09 148.53 161.27 149.31C162.47 150.07 163.37 151.08 163.97 152.34C164.57 153.58 164.87 154.92 164.87 156.36V157.86H150.44V155.31H162.26L160.97 156.57C160.97 155.53 160.82 154.64 160.52 153.9C160.22 153.16 159.76 152.59 159.14 152.19C158.54 151.79 157.78 151.59 156.86 151.59C155.94 151.59 155.16 151.8 154.52 152.22C153.88 152.64 153.39 153.25 153.05 154.05C152.73 154.83 152.57 155.77 152.57 156.87C152.57 157.89 152.73 158.8 153.05 159.6C153.37 160.38 153.86 161 154.52 161.46C155.18 161.9 156.02 162.12 157.04 162.12C158.06 162.12 158.89 161.92 159.53 161.52C160.17 161.1 160.58 160.59 160.76 159.99H164.6C164.36 161.11 163.9 162.09 163.22 162.93C162.54 163.77 161.67 164.42 160.61 164.88C159.57 165.34 158.38 165.57 157.04 165.57ZM168.353 165V148.71H171.653V155.61H171.563C171.563 153.27 172.063 151.5 173.063 150.3C174.063 149.1 175.533 148.5 177.473 148.5H178.073V152.13H176.933C175.533 152.13 174.443 152.51 173.663 153.27C172.903 154.01 172.523 155.09 172.523 156.51V165H168.353Z" fill="white"/>
<path d="M248 157C247.448 157 247 157.448 247 158C247 158.552 247.448 159 248 159V157ZM332.707 158.707C333.098 158.317 333.098 157.683 332.707 157.293L326.343 150.929C325.953 150.538 325.319 150.538 324.929 150.929C324.538 151.319 324.538 151.953 324.929 152.343L330.586 158L324.929 163.657C324.538 164.047 324.538 164.681 324.929 165.071C325.319 165.462 325.953 165.462 326.343 165.071L332.707 158.707ZM248 159H332V157H248V159Z" fill="black"/>
<path d="M670 157C669.448 157 669 157.448 669 158C669 158.552 669.448 159 670 159V157ZM754.707 158.707C755.098 158.317 755.098 157.683 754.707 157.293L748.343 150.929C747.953 150.538 747.319 150.538 746.929 150.929C746.538 151.319 746.538 151.953 746.929 152.343L752.586 158L746.929 163.657C746.538 164.047 746.538 164.681 746.929 165.071C747.319 165.462 747.953 165.462 748.343 165.071L754.707 158.707ZM670 159H754V157H670V159Z" fill="black"/>
<path d="M1100 157C1099.45 157 1099 157.448 1099 158C1099 158.552 1099.45 159 1100 159V157ZM1184.71 158.707C1185.1 158.317 1185.1 157.683 1184.71 157.293L1178.34 150.929C1177.95 150.538 1177.32 150.538 1176.93 150.929C1176.54 151.319 1176.54 151.953 1176.93 152.343L1182.59 158L1176.93 163.657C1176.54 164.047 1176.54 164.681 1176.93 165.071C1177.32 165.462 1177.95 165.462 1178.34 165.071L1184.71 158.707ZM1100 159H1184V157H1100V159Z" fill="black"/>
<path d="M365 122C365 110.954 373.954 102 385 102H617C628.046 102 637 110.954 637 122V195C637 206.046 628.046 215 617 215H385C373.954 215 365 206.046 365 195V122Z" fill="url(#paint1_linear_49_220)"/>
<path d="M462.73 165.57C460.79 165.57 459.15 165.26 457.81 164.64C456.49 164.02 455.48 163.17 454.78 162.09C454.08 160.99 453.73 159.75 453.73 158.37H457.9C457.9 158.95 458.06 159.52 458.38 160.08C458.7 160.62 459.21 161.06 459.91 161.4C460.63 161.74 461.57 161.91 462.73 161.91C463.77 161.91 464.64 161.76 465.34 161.46C466.04 161.16 466.56 160.77 466.9 160.29C467.24 159.79 467.41 159.23 467.41 158.61C467.41 157.83 467.08 157.21 466.42 156.75C465.76 156.27 464.74 155.97 463.36 155.85L461.44 155.7C459.34 155.52 457.66 154.87 456.4 153.75C455.16 152.61 454.54 151.11 454.54 149.25C454.54 147.85 454.87 146.65 455.53 145.65C456.19 144.63 457.11 143.85 458.29 143.31C459.49 142.75 460.89 142.47 462.49 142.47C464.15 142.47 465.58 142.76 466.78 143.34C467.98 143.92 468.91 144.74 469.57 145.8C470.23 146.84 470.56 148.07 470.56 149.49H466.39C466.39 148.89 466.24 148.34 465.94 147.84C465.66 147.32 465.23 146.91 464.65 146.61C464.09 146.29 463.37 146.13 462.49 146.13C461.65 146.13 460.95 146.27 460.39 146.55C459.83 146.83 459.41 147.21 459.13 147.69C458.85 148.17 458.71 148.69 458.71 149.25C458.71 149.93 458.96 150.53 459.46 151.05C459.96 151.55 460.75 151.84 461.83 151.92L463.75 152.1C465.31 152.22 466.68 152.55 467.86 153.09C469.04 153.63 469.95 154.36 470.59 155.28C471.25 156.2 471.58 157.31 471.58 158.61C471.58 159.99 471.22 161.21 470.5 162.27C469.78 163.31 468.75 164.12 467.41 164.7C466.09 165.28 464.53 165.57 462.73 165.57ZM475.144 171V148.71H478.444V155.73L477.934 155.7C478.014 154.04 478.354 152.65 478.954 151.53C479.574 150.41 480.394 149.58 481.414 149.04C482.434 148.48 483.574 148.2 484.834 148.2C485.994 148.2 487.034 148.41 487.954 148.83C488.894 149.25 489.694 149.84 490.354 150.6C491.034 151.36 491.554 152.25 491.914 153.27C492.274 154.27 492.454 155.35 492.454 156.51V157.14C492.454 158.32 492.274 159.42 491.914 160.44C491.574 161.44 491.064 162.33 490.384 163.11C489.724 163.87 488.924 164.47 487.984 164.91C487.044 165.33 485.994 165.54 484.834 165.54C483.614 165.54 482.494 165.29 481.474 164.79C480.474 164.27 479.664 163.48 479.044 162.42C478.424 161.34 478.074 159.95 477.994 158.25L479.314 160.26V171H475.144ZM483.784 162.03C484.684 162.03 485.464 161.81 486.124 161.37C486.804 160.93 487.334 160.32 487.714 159.54C488.094 158.74 488.284 157.84 488.284 156.84C488.284 155.8 488.094 154.9 487.714 154.14C487.334 153.38 486.804 152.79 486.124 152.37C485.464 151.93 484.684 151.71 483.784 151.71C482.964 151.71 482.204 151.89 481.504 152.25C480.824 152.61 480.264 153.14 479.824 153.84C479.404 154.54 479.194 155.38 479.194 156.36V157.56C479.194 158.5 479.414 159.3 479.854 159.96C480.294 160.62 480.864 161.13 481.564 161.49C482.264 161.85 483.004 162.03 483.784 162.03ZM496.121 165V143.1H500.291V155.88H499.571C499.571 154.24 499.781 152.85 500.201 151.71C500.621 150.57 501.241 149.7 502.061 149.1C502.901 148.5 503.961 148.2 505.241 148.2H505.421C507.281 148.2 508.691 148.84 509.651 150.12C510.611 151.4 511.091 153.26 511.091 155.7V165H506.921V155.31C506.921 154.27 506.621 153.45 506.021 152.85C505.441 152.25 504.671 151.95 503.711 151.95C502.691 151.95 501.861 152.29 501.221 152.97C500.601 153.63 500.291 154.5 500.291 155.58V165H496.121ZM516.354 165V148.71H520.524V165H516.354ZM514.074 151.83V148.71H520.524V151.83H514.074ZM517.884 146.76C517.064 146.76 516.454 146.55 516.054 146.13C515.674 145.69 515.484 145.14 515.484 144.48C515.484 143.82 515.674 143.28 516.054 142.86C516.454 142.44 517.064 142.23 517.884 142.23C518.704 142.23 519.304 142.44 519.684 142.86C520.064 143.28 520.254 143.82 520.254 144.48C520.254 145.14 520.064 145.69 519.684 146.13C519.304 146.55 518.704 146.76 517.884 146.76ZM525.33 165V148.71H528.63V155.7H528.33C528.33 154.04 528.55 152.66 528.99 151.56C529.43 150.44 530.08 149.6 530.94 149.04C531.82 148.48 532.91 148.2 534.21 148.2H534.39C536.33 148.2 537.8 148.83 538.8 150.09C539.8 151.33 540.3 153.19 540.3 155.67V165H536.13V155.31C536.13 154.31 535.84 153.5 535.26 152.88C534.7 152.26 533.92 151.95 532.92 151.95C531.9 151.95 531.07 152.27 530.43 152.91C529.81 153.53 529.5 154.37 529.5 155.43V165H525.33ZM542.894 165L548.204 156.3L548.114 156.99L543.104 148.71H547.634L550.904 154.44H551.354L554.444 148.71H558.704L553.964 156.96L554.054 156.36L559.664 165H555.134L551.264 158.85H550.814L547.154 165H542.894ZM561.701 165V160.2H566.381V165H561.701ZM580.288 165V160.17H579.598V154.8C579.598 153.86 579.368 153.16 578.908 152.7C578.448 152.24 577.738 152.01 576.778 152.01C576.278 152.01 575.678 152.02 574.978 152.04C574.278 152.06 573.568 152.09 572.848 152.13C572.148 152.15 571.518 152.18 570.958 152.22V148.68C571.418 148.64 571.938 148.6 572.518 148.56C573.098 148.52 573.688 148.5 574.288 148.5C574.908 148.48 575.488 148.47 576.028 148.47C577.708 148.47 579.098 148.69 580.198 149.13C581.318 149.57 582.158 150.26 582.718 151.2C583.298 152.14 583.588 153.37 583.588 154.89V165H580.288ZM575.038 165.42C573.858 165.42 572.818 165.21 571.918 164.79C571.038 164.37 570.348 163.77 569.848 162.99C569.368 162.21 569.128 161.27 569.128 160.17C569.128 158.97 569.418 157.99 569.998 157.23C570.598 156.47 571.428 155.9 572.488 155.52C573.568 155.14 574.828 154.95 576.268 154.95H580.048V157.44H576.208C575.248 157.44 574.508 157.68 573.988 158.16C573.488 158.62 573.238 159.22 573.238 159.96C573.238 160.7 573.488 161.3 573.988 161.76C574.508 162.22 575.248 162.45 576.208 162.45C576.788 162.45 577.318 162.35 577.798 162.15C578.298 161.93 578.708 161.57 579.028 161.07C579.368 160.55 579.558 159.85 579.598 158.97L580.618 160.14C580.518 161.28 580.238 162.24 579.778 163.02C579.338 163.8 578.718 164.4 577.918 164.82C577.138 165.22 576.178 165.42 575.038 165.42ZM588.835 165V148.71H593.005V165H588.835ZM586.555 151.83V148.71H593.005V151.83H586.555ZM590.365 146.76C589.545 146.76 588.935 146.55 588.535 146.13C588.155 145.69 587.965 145.14 587.965 144.48C587.965 143.82 588.155 143.28 588.535 142.86C588.935 142.44 589.545 142.23 590.365 142.23C591.185 142.23 591.785 142.44 592.165 142.86C592.545 143.28 592.735 143.82 592.735 144.48C592.735 145.14 592.545 145.69 592.165 146.13C591.785 146.55 591.185 146.76 590.365 146.76Z" fill="white"/>
<g clip-path="url(#clip0_49_220)">
<path d="M431.047 133.131L430.806 132.796L428.83 130L424.844 131.737L410.66 137.918C408.158 139.008 406.052 140.579 404.54 142.485C403.029 144.39 402.161 146.567 402.021 148.809C401.971 149.574 402.006 150.342 402.125 151.102C402.136 151.169 402.148 151.238 402.159 151.304C402.182 151.438 402.21 151.572 402.238 151.705C402.313 152.039 402.405 152.377 402.515 152.718C402.553 152.833 402.591 152.948 402.634 153.062C402.747 153.377 402.878 153.691 403.026 154.004C403.073 154.106 403.122 154.206 403.173 154.306C403.441 154.84 403.753 155.359 404.107 155.86L411.986 166.988L414.199 170.118L415.583 169.517L418.183 168.382C418.707 168.154 419.169 167.848 419.542 167.48C419.914 167.112 420.191 166.69 420.356 166.238C420.521 165.786 420.571 165.313 420.503 164.846C420.435 164.379 420.25 163.927 419.959 163.516L412.086 152.385C411.95 152.192 411.814 151.988 411.68 151.774C411.769 151.914 411.859 152.05 411.948 152.181C411.88 152.075 411.814 151.966 411.754 151.847C411.513 151.413 411.339 150.958 411.237 150.491C411.197 150.32 411.168 150.148 411.152 149.975C411.139 149.863 411.13 149.752 411.126 149.641C411.128 149.636 411.128 149.63 411.126 149.626C411.099 148.906 411.237 148.188 411.533 147.506C411.623 147.298 411.726 147.095 411.844 146.896C411.903 146.794 411.965 146.695 412.033 146.597C412.101 146.498 412.195 146.365 412.284 146.253C412.419 146.086 412.563 145.919 412.721 145.752C412.823 145.647 412.932 145.543 413.047 145.441C413.217 145.288 413.398 145.143 413.588 145.005C413.715 144.913 413.847 144.823 413.984 144.738C414.329 144.517 414.699 144.322 415.089 144.153L429.273 137.98C430.325 137.52 431.102 136.751 431.435 135.842C431.767 134.934 431.628 133.959 431.047 133.131ZM409.855 148.209C409.713 147.849 409.577 147.486 409.446 147.118C409.574 147.486 409.71 147.851 409.855 148.209Z" fill="white"/>
<path d="M442.997 166.752V166.966C442.987 167.179 442.972 167.393 442.951 167.605L442.925 167.818C442.908 167.96 442.887 168.1 442.863 168.242C442.816 168.523 442.757 168.803 442.689 169.077C442.653 169.221 442.612 169.365 442.572 169.508C442.552 169.572 442.531 169.637 442.512 169.7C442.444 169.919 442.367 170.138 442.284 170.353C442.263 170.409 442.242 170.464 442.218 170.521C441.946 171.198 441.605 171.857 441.198 172.492C441.158 172.555 441.117 172.619 441.075 172.681L440.947 172.869C440.772 173.12 440.588 173.366 440.395 173.608C440.202 173.848 439.995 174.085 439.782 174.318C439.673 174.433 439.569 174.548 439.452 174.662C439.226 174.885 438.991 175.107 438.747 175.33C438.624 175.439 438.498 175.544 438.372 175.649C438.247 175.754 438.115 175.858 437.983 175.96C437.851 176.062 437.748 176.139 437.627 176.227L437.561 176.274C437.427 176.371 437.289 176.466 437.15 176.56C437.012 176.653 436.865 176.75 436.724 176.842C436.584 176.934 436.428 177.026 436.277 177.114C436.126 177.203 436.011 177.268 435.877 177.341L435.732 177.42C435.608 177.488 435.483 177.554 435.355 177.619L435.338 177.627C435.206 177.696 435.072 177.761 434.935 177.824H434.923C434.876 177.846 434.831 177.869 434.784 177.889C434.639 177.958 434.493 178.023 434.346 178.088L420.157 184.262L416.167 186L415.4 184.914L413.954 182.869C413.663 182.458 413.479 182.006 413.41 181.539C413.342 181.072 413.392 180.599 413.557 180.147C413.722 179.695 413.999 179.274 414.372 178.906C414.745 178.538 415.206 178.231 415.73 178.003L429.914 171.822C430.366 171.625 430.843 171.398 431.332 171.14C430.943 171.342 430.562 171.528 430.195 171.693C430.408 171.591 430.621 171.481 430.811 171.359C430.947 171.279 431.079 171.192 431.205 171.109C431.264 171.07 431.322 171.03 431.379 170.988C431.582 170.843 431.774 170.689 431.956 170.527C432.054 170.44 432.148 170.35 432.237 170.26C432.289 170.21 432.338 170.16 432.387 170.108C432.436 170.056 432.485 170.003 432.529 169.949C432.574 169.896 432.619 169.847 432.659 169.796L432.67 169.784C432.712 169.732 432.753 169.679 432.793 169.625C432.834 169.572 432.857 169.542 432.887 169.498C432.942 169.421 432.996 169.343 433.047 169.264C433.079 169.216 433.108 169.166 433.138 169.116C433.168 169.065 433.179 169.047 433.198 169.014C433.217 168.98 433.257 168.908 433.285 168.857C433.313 168.805 433.317 168.795 433.332 168.765C433.364 168.706 433.392 168.646 433.419 168.586C433.447 168.526 433.475 168.466 433.498 168.404C433.522 168.342 433.549 168.282 433.571 168.222C433.592 168.162 433.615 168.098 433.634 168.038C433.654 167.978 433.675 167.913 433.692 167.851C433.724 167.739 433.754 167.625 433.777 167.517C433.788 167.47 433.796 167.423 433.805 167.377C433.82 167.293 433.832 167.21 433.843 167.124C433.854 167.039 433.858 166.992 433.864 166.926C433.871 166.859 433.864 166.829 433.864 166.779C433.925 165.671 433.594 164.573 432.906 163.604L425.038 152.477C424.747 152.066 424.562 151.614 424.494 151.147C424.426 150.68 424.476 150.207 424.641 149.755C424.806 149.303 425.082 148.881 425.455 148.513C425.828 148.145 426.29 147.839 426.814 147.611L427.24 147.422L430.798 145.875L433.025 149.011L440.904 160.14C442.334 162.16 443.056 164.441 442.997 166.752Z" fill="white"/>
</g>
<rect x="787" y="48" width="280" height="219" rx="20" fill="url(#paint2_linear_49_220)"/>
<path d="M831.844 126.781C831.844 125.215 832.466 123.713 833.574 122.605C834.681 121.497 836.184 120.875 837.75 120.875H856.961C858.527 120.876 860.028 121.5 861.135 122.608L873.428 134.892C873.976 135.441 874.411 136.093 874.708 136.809C875.004 137.526 875.157 138.294 875.156 139.07V162.219C875.156 163.785 874.534 165.287 873.426 166.395C872.319 167.503 870.816 168.125 869.25 168.125H837.75C836.184 168.125 834.681 167.503 833.574 166.395C832.466 165.287 831.844 163.785 831.844 162.219V126.781Z" fill="white"/>
<path d="M904.844 126.781C904.844 125.215 905.466 123.713 906.574 122.605C907.681 121.497 909.184 120.875 910.75 120.875H929.961C931.527 120.876 933.028 121.5 934.135 122.608L946.428 134.892C946.976 135.441 947.411 136.093 947.708 136.809C948.004 137.526 948.157 138.294 948.156 139.07V162.219C948.156 163.785 947.534 165.287 946.426 166.395C945.319 167.503 943.816 168.125 942.25 168.125H910.75C909.184 168.125 907.681 167.503 906.574 166.395C905.466 165.287 904.844 163.785 904.844 162.219V126.781Z" fill="white"/>
<path d="M977.844 126.781C977.844 125.215 978.466 123.713 979.574 122.605C980.681 121.497 982.184 120.875 983.75 120.875H1002.96C1004.53 120.876 1006.03 121.5 1007.13 122.608L1019.43 134.892C1019.98 135.441 1020.41 136.093 1020.71 136.809C1021 137.526 1021.16 138.294 1021.16 139.07V162.219C1021.16 163.785 1020.53 165.287 1019.43 166.395C1018.32 167.503 1016.82 168.125 1015.25 168.125H983.75C982.184 168.125 980.681 167.503 979.574 166.395C978.466 165.287 977.844 163.785 977.844 162.219V126.781Z" fill="white"/>
<path d="M831.844 189.781C831.844 188.215 832.466 186.713 833.574 185.605C834.681 184.497 836.184 183.875 837.75 183.875H856.961C858.527 183.876 860.028 184.5 861.135 185.608L873.428 197.892C873.976 198.441 874.411 199.093 874.708 199.809C875.004 200.526 875.157 201.294 875.156 202.07V225.219C875.156 226.785 874.534 228.287 873.426 229.395C872.319 230.503 870.816 231.125 869.25 231.125H837.75C836.184 231.125 834.681 230.503 833.574 229.395C832.466 228.287 831.844 226.785 831.844 225.219V189.781Z" fill="white"/>
<path d="M904.844 189.781C904.844 188.215 905.466 186.713 906.574 185.605C907.681 184.497 909.184 183.875 910.75 183.875H929.961C931.527 183.876 933.028 184.5 934.135 185.608L946.428 197.892C946.976 198.441 947.411 199.093 947.708 199.809C948.004 200.526 948.157 201.294 948.156 202.07V225.219C948.156 226.785 947.534 228.287 946.426 229.395C945.319 230.503 943.816 231.125 942.25 231.125H910.75C909.184 231.125 907.681 230.503 906.574 229.395C905.466 228.287 904.844 226.785 904.844 225.219V189.781Z" fill="white"/>
<path d="M977.844 189.781C977.844 188.215 978.466 186.713 979.574 185.605C980.681 184.497 982.184 183.875 983.75 183.875H1002.96C1004.53 183.876 1006.03 184.5 1007.13 185.608L1019.43 197.892C1019.98 198.441 1020.41 199.093 1020.71 199.809C1021 200.526 1021.16 201.294 1021.16 202.07V225.219C1021.16 226.785 1020.53 228.287 1019.43 229.395C1018.32 230.503 1016.82 231.125 1015.25 231.125H983.75C982.184 231.125 980.681 230.503 979.574 229.395C978.466 228.287 977.844 226.785 977.844 225.219V189.781Z" fill="white"/>
<path d="M888.827 95.15V91.73H894.317C895.317 91.73 896.077 91.46 896.597 90.92C897.117 90.36 897.377 89.6 897.377 88.64C897.377 87.68 897.117 86.94 896.597 86.42C896.077 85.88 895.317 85.61 894.317 85.61H888.827V83H894.017C895.477 83 896.777 83.18 897.917 83.54C899.077 83.88 899.977 84.46 900.617 85.28C901.277 86.1 901.607 87.2 901.607 88.58V89C901.607 90.3 901.317 91.41 900.737 92.33C900.177 93.23 899.327 93.93 898.187 94.43C897.067 94.91 895.677 95.15 894.017 95.15H888.827ZM885.257 95.15V72.95H889.427V95.15H885.257ZM888.827 84.92V82.31H893.507C894.527 82.31 895.277 82.04 895.757 81.5C896.237 80.96 896.477 80.24 896.477 79.34C896.477 78.44 896.237 77.72 895.757 77.18C895.277 76.64 894.527 76.37 893.507 76.37H888.827V72.95H893.117C895.597 72.95 897.477 73.47 898.757 74.51C900.057 75.55 900.707 77.04 900.707 78.98V79.4C900.707 80.76 900.377 81.85 899.717 82.67C899.077 83.47 898.187 84.05 897.047 84.41C895.907 84.75 894.597 84.92 893.117 84.92H888.827ZM915.451 95V90.17H914.761V84.8C914.761 83.86 914.531 83.16 914.071 82.7C913.611 82.24 912.901 82.01 911.941 82.01C911.441 82.01 910.841 82.02 910.141 82.04C909.441 82.06 908.731 82.09 908.011 82.13C907.311 82.15 906.681 82.18 906.121 82.22V78.68C906.581 78.64 907.101 78.6 907.681 78.56C908.261 78.52 908.851 78.5 909.451 78.5C910.071 78.48 910.651 78.47 911.191 78.47C912.871 78.47 914.261 78.69 915.361 79.13C916.481 79.57 917.321 80.26 917.881 81.2C918.461 82.14 918.751 83.37 918.751 84.89V95H915.451ZM910.201 95.42C909.021 95.42 907.981 95.21 907.081 94.79C906.201 94.37 905.511 93.77 905.011 92.99C904.531 92.21 904.291 91.27 904.291 90.17C904.291 88.97 904.581 87.99 905.161 87.23C905.761 86.47 906.591 85.9 907.651 85.52C908.731 85.14 909.991 84.95 911.431 84.95H915.211V87.44H911.371C910.411 87.44 909.671 87.68 909.151 88.16C908.651 88.62 908.401 89.22 908.401 89.96C908.401 90.7 908.651 91.3 909.151 91.76C909.671 92.22 910.411 92.45 911.371 92.45C911.951 92.45 912.481 92.35 912.961 92.15C913.461 91.93 913.871 91.57 914.191 91.07C914.531 90.55 914.721 89.85 914.761 88.97L915.781 90.14C915.681 91.28 915.401 92.24 914.941 93.02C914.501 93.8 913.881 94.4 913.081 94.82C912.301 95.22 911.341 95.42 910.201 95.42ZM930.298 95.21C928.798 95.21 927.558 95.02 926.578 94.64C925.618 94.24 924.898 93.58 924.418 92.66C923.938 91.72 923.698 90.46 923.698 88.88L923.728 74.12H927.628L927.598 89.15C927.598 89.95 927.808 90.57 928.228 91.01C928.668 91.43 929.288 91.64 930.088 91.64H932.638V95.21H930.298ZM921.118 81.77V78.71H932.638V81.77H921.118ZM943.28 95.57C941.86 95.57 940.63 95.33 939.59 94.85C938.57 94.37 937.71 93.73 937.01 92.93C936.33 92.13 935.82 91.23 935.48 90.23C935.14 89.23 934.97 88.21 934.97 87.17V86.6C934.97 85.5 935.14 84.45 935.48 83.45C935.84 82.43 936.37 81.53 937.07 80.75C937.77 79.95 938.63 79.32 939.65 78.86C940.69 78.38 941.89 78.14 943.25 78.14C944.67 78.14 945.94 78.42 947.06 78.98C948.18 79.52 949.07 80.28 949.73 81.26C950.41 82.24 950.79 83.38 950.87 84.68H946.82C946.72 83.84 946.36 83.14 945.74 82.58C945.14 82.02 944.31 81.74 943.25 81.74C942.33 81.74 941.56 81.96 940.94 82.4C940.34 82.84 939.89 83.45 939.59 84.23C939.29 84.99 939.14 85.87 939.14 86.87C939.14 87.83 939.28 88.7 939.56 89.48C939.86 90.26 940.31 90.87 940.91 91.31C941.53 91.75 942.32 91.97 943.28 91.97C944 91.97 944.62 91.84 945.14 91.58C945.66 91.32 946.07 90.96 946.37 90.5C946.69 90.04 946.89 89.52 946.97 88.94H951.02C950.94 90.26 950.55 91.42 949.85 92.42C949.17 93.4 948.26 94.17 947.12 94.73C946 95.29 944.72 95.57 943.28 95.57ZM954.36 95V73.1H958.53V85.88H957.81C957.81 84.24 958.02 82.85 958.44 81.71C958.86 80.57 959.48 79.7 960.3 79.1C961.14 78.5 962.2 78.2 963.48 78.2H963.66C965.52 78.2 966.93 78.84 967.89 80.12C968.85 81.4 969.33 83.26 969.33 85.7V95H965.16V85.31C965.16 84.27 964.86 83.45 964.26 82.85C963.68 82.25 962.91 81.95 961.95 81.95C960.93 81.95 960.1 82.29 959.46 82.97C958.84 83.63 958.53 84.5 958.53 85.58V95H954.36Z" fill="white"/>
<rect x="1217" y="102" width="208" height="128" rx="20" fill="url(#paint3_linear_49_220)"/>
<path d="M1254.63 150V140.769H1256.99V150H1254.63ZM1253.33 142.537V140.769H1256.99V142.537H1253.33ZM1255.49 139.664C1255.03 139.664 1254.68 139.545 1254.46 139.307C1254.24 139.058 1254.13 138.746 1254.13 138.372C1254.13 137.998 1254.24 137.692 1254.46 137.454C1254.68 137.216 1255.03 137.097 1255.49 137.097C1255.96 137.097 1256.3 137.216 1256.51 137.454C1256.73 137.692 1256.84 137.998 1256.84 138.372C1256.84 138.746 1256.73 139.058 1256.51 139.307C1256.3 139.545 1255.96 139.664 1255.49 139.664ZM1259.71 150V140.769H1261.58V144.73H1261.41C1261.41 143.789 1261.54 143.007 1261.79 142.384C1262.03 141.749 1262.4 141.273 1262.89 140.956C1263.39 140.639 1264.01 140.48 1264.74 140.48H1264.85C1265.94 140.48 1266.78 140.837 1267.34 141.551C1267.91 142.254 1268.19 143.308 1268.19 144.713V150H1265.83V144.509C1265.83 143.942 1265.67 143.483 1265.34 143.132C1265.02 142.781 1264.58 142.605 1264.01 142.605C1263.43 142.605 1262.96 142.786 1262.6 143.149C1262.25 143.5 1262.07 143.976 1262.07 144.577V150H1259.71ZM1270.74 153.4V140.769H1272.61V144.747L1272.32 144.73C1272.36 143.789 1272.55 143.002 1272.89 142.367C1273.25 141.732 1273.71 141.262 1274.29 140.956C1274.87 140.639 1275.51 140.48 1276.23 140.48C1276.88 140.48 1277.47 140.599 1277.99 140.837C1278.53 141.075 1278.98 141.409 1279.35 141.84C1279.74 142.271 1280.03 142.775 1280.24 143.353C1280.44 143.92 1280.54 144.532 1280.54 145.189V145.546C1280.54 146.215 1280.44 146.838 1280.24 147.416C1280.05 147.983 1279.76 148.487 1279.37 148.929C1279 149.36 1278.54 149.7 1278.01 149.949C1277.48 150.187 1276.88 150.306 1276.23 150.306C1275.53 150.306 1274.9 150.164 1274.32 149.881C1273.76 149.586 1273.3 149.139 1272.95 148.538C1272.59 147.926 1272.4 147.138 1272.35 146.175L1273.1 147.314V153.4H1270.74ZM1275.63 148.317C1276.14 148.317 1276.58 148.192 1276.96 147.943C1277.34 147.694 1277.64 147.348 1277.86 146.906C1278.07 146.453 1278.18 145.943 1278.18 145.376C1278.18 144.787 1278.07 144.277 1277.86 143.846C1277.64 143.415 1277.34 143.081 1276.96 142.843C1276.58 142.594 1276.14 142.469 1275.63 142.469C1275.17 142.469 1274.74 142.571 1274.34 142.775C1273.95 142.979 1273.64 143.279 1273.39 143.676C1273.15 144.073 1273.03 144.549 1273.03 145.104V145.784C1273.03 146.317 1273.15 146.77 1273.4 147.144C1273.65 147.518 1273.98 147.807 1274.37 148.011C1274.77 148.215 1275.19 148.317 1275.63 148.317ZM1285.77 150.289C1284.7 150.289 1283.87 149.938 1283.28 149.235C1282.71 148.532 1282.42 147.49 1282.42 146.107V140.752H1284.78V146.311C1284.78 146.878 1284.94 147.331 1285.26 147.671C1285.57 148 1286 148.164 1286.55 148.164C1287.09 148.164 1287.53 147.988 1287.87 147.637C1288.23 147.286 1288.4 146.81 1288.4 146.209V140.752H1290.76V150H1288.89V146.073H1289.08C1289.08 147.002 1288.96 147.779 1288.72 148.402C1288.49 149.025 1288.13 149.496 1287.65 149.813C1287.18 150.13 1286.58 150.289 1285.87 150.289H1285.77ZM1297.49 150.119C1296.64 150.119 1295.94 150.011 1295.38 149.796C1294.84 149.569 1294.43 149.195 1294.16 148.674C1293.89 148.141 1293.75 147.427 1293.75 146.532L1293.77 138.168H1295.98L1295.96 146.685C1295.96 147.138 1296.08 147.49 1296.32 147.739C1296.57 147.977 1296.92 148.096 1297.37 148.096H1298.82V150.119H1297.49ZM1292.29 142.503V140.769H1298.82V142.503H1292.29ZM1310.93 150L1307.84 145.682H1306.46L1310.39 140.769H1312.85L1309.23 145.308L1309.28 144.118L1313.6 150H1310.93ZM1304.47 150V137.59H1306.83V150H1304.47ZM1318.79 150.323C1318 150.323 1317.3 150.187 1316.7 149.915C1316.11 149.643 1315.62 149.28 1315.22 148.827C1314.84 148.362 1314.54 147.847 1314.34 147.28C1314.15 146.713 1314.05 146.135 1314.05 145.546V145.223C1314.05 144.611 1314.15 144.022 1314.34 143.455C1314.54 142.877 1314.84 142.367 1315.22 141.925C1315.62 141.472 1316.11 141.115 1316.69 140.854C1317.26 140.582 1317.93 140.446 1318.69 140.446C1319.69 140.446 1320.52 140.667 1321.19 141.109C1321.87 141.54 1322.38 142.112 1322.72 142.826C1323.06 143.529 1323.23 144.288 1323.23 145.104V145.954H1315.05V144.509H1321.75L1321.02 145.223C1321.02 144.634 1320.94 144.129 1320.77 143.71C1320.6 143.291 1320.34 142.968 1319.98 142.741C1319.64 142.514 1319.21 142.401 1318.69 142.401C1318.17 142.401 1317.73 142.52 1317.37 142.758C1317 142.996 1316.73 143.342 1316.53 143.795C1316.35 144.237 1316.26 144.77 1316.26 145.393C1316.26 145.971 1316.35 146.487 1316.53 146.94C1316.71 147.382 1316.99 147.733 1317.37 147.994C1317.74 148.243 1318.22 148.368 1318.79 148.368C1319.37 148.368 1319.84 148.255 1320.2 148.028C1320.57 147.79 1320.8 147.501 1320.9 147.161H1323.08C1322.94 147.796 1322.68 148.351 1322.3 148.827C1321.91 149.303 1321.42 149.671 1320.82 149.932C1320.23 150.193 1319.55 150.323 1318.79 150.323ZM1324.85 153.638V151.615H1326.58C1326.91 151.615 1327.18 151.57 1327.4 151.479C1327.63 151.4 1327.81 151.264 1327.96 151.071C1328.11 150.89 1328.22 150.635 1328.3 150.306L1330.78 140.769H1333.04L1330.31 150.816C1330.13 151.507 1329.87 152.057 1329.54 152.465C1329.21 152.884 1328.79 153.185 1328.27 153.366C1327.76 153.547 1327.12 153.638 1326.36 153.638H1324.85ZM1327.72 149.796V147.926H1329.69V149.796H1327.72ZM1326.92 149.796L1323.93 140.769H1326.31L1329.15 149.796H1326.92ZM1337.83 150L1339.58 141.075H1342.3L1344.32 150H1342.45L1340.4 141.126H1341.38L1339.56 150H1337.83ZM1337.13 150L1337.12 148.062H1339V150H1337.13ZM1336.18 150L1333.66 140.769H1335.96L1338.36 150H1336.18ZM1343.05 150V148.062H1344.94L1344.92 150H1343.05ZM1343.8 150L1345.92 140.769H1348.06L1345.84 150H1343.8ZM1354.16 150.323C1353.35 150.323 1352.63 150.193 1352 149.932C1351.38 149.671 1350.85 149.32 1350.42 148.878C1349.99 148.425 1349.66 147.915 1349.44 147.348C1349.22 146.781 1349.11 146.192 1349.11 145.58V145.223C1349.11 144.588 1349.23 143.988 1349.45 143.421C1349.69 142.843 1350.03 142.333 1350.46 141.891C1350.9 141.438 1351.43 141.086 1352.05 140.837C1352.68 140.576 1353.38 140.446 1354.16 140.446C1354.94 140.446 1355.65 140.576 1356.27 140.837C1356.89 141.086 1357.42 141.438 1357.85 141.891C1358.29 142.333 1358.63 142.843 1358.85 143.421C1359.08 143.988 1359.19 144.588 1359.19 145.223V145.58C1359.19 146.192 1359.08 146.781 1358.85 147.348C1358.64 147.915 1358.32 148.425 1357.89 148.878C1357.45 149.32 1356.93 149.671 1356.3 149.932C1355.68 150.193 1354.97 150.323 1354.16 150.323ZM1354.16 148.3C1354.74 148.3 1355.23 148.175 1355.62 147.926C1356.02 147.665 1356.32 147.32 1356.53 146.889C1356.73 146.447 1356.83 145.948 1356.83 145.393C1356.83 144.826 1356.72 144.328 1356.51 143.897C1356.3 143.455 1356 143.109 1355.59 142.86C1355.19 142.599 1354.72 142.469 1354.16 142.469C1353.61 142.469 1353.13 142.599 1352.72 142.86C1352.32 143.109 1352.01 143.455 1351.8 143.897C1351.58 144.328 1351.48 144.826 1351.48 145.393C1351.48 145.948 1351.58 146.447 1351.78 146.889C1352 147.32 1352.3 147.665 1352.7 147.926C1353.1 148.175 1353.58 148.3 1354.16 148.3ZM1361.26 150V140.769H1363.13V144.679H1363.08C1363.08 143.353 1363.37 142.35 1363.93 141.67C1364.5 140.99 1365.33 140.65 1366.43 140.65H1366.77V142.707H1366.13C1365.33 142.707 1364.71 142.922 1364.27 143.353C1363.84 143.772 1363.63 144.384 1363.63 145.189V150H1361.26ZM1372.11 150.306C1371.46 150.306 1370.87 150.187 1370.33 149.949C1369.78 149.711 1369.31 149.377 1368.91 148.946C1368.52 148.515 1368.21 148.017 1368 147.45C1367.78 146.872 1367.67 146.249 1367.67 145.58V145.223C1367.67 144.566 1367.78 143.948 1367.98 143.37C1368.2 142.792 1368.49 142.288 1368.86 141.857C1369.25 141.426 1369.71 141.092 1370.24 140.854C1370.78 140.605 1371.39 140.48 1372.04 140.48C1372.77 140.48 1373.4 140.639 1373.95 140.956C1374.5 141.262 1374.94 141.727 1375.27 142.35C1375.6 142.973 1375.78 143.755 1375.82 144.696L1375.12 143.88V137.59H1377.48V150H1375.61V146.073H1376.02C1375.99 147.014 1375.79 147.801 1375.44 148.436C1375.09 149.059 1374.63 149.53 1374.05 149.847C1373.48 150.153 1372.84 150.306 1372.11 150.306ZM1372.64 148.317C1373.1 148.317 1373.53 148.215 1373.91 148.011C1374.3 147.796 1374.6 147.49 1374.83 147.093C1375.07 146.685 1375.19 146.209 1375.19 145.665V144.985C1375.19 144.441 1375.07 143.988 1374.83 143.625C1374.59 143.251 1374.28 142.968 1373.9 142.775C1373.51 142.571 1373.09 142.469 1372.64 142.469C1372.13 142.469 1371.67 142.594 1371.28 142.843C1370.89 143.081 1370.59 143.421 1370.36 143.863C1370.14 144.305 1370.04 144.821 1370.04 145.41C1370.04 145.999 1370.15 146.515 1370.38 146.957C1370.6 147.388 1370.91 147.722 1371.29 147.96C1371.69 148.198 1372.14 148.317 1372.64 148.317ZM1383.52 150.289C1382.25 150.289 1381.25 150.023 1380.53 149.49C1379.82 148.946 1379.44 148.198 1379.41 147.246H1381.53C1381.57 147.563 1381.74 147.852 1382.06 148.113C1382.38 148.374 1382.88 148.504 1383.56 148.504C1384.12 148.504 1384.57 148.402 1384.9 148.198C1385.24 147.994 1385.41 147.716 1385.41 147.365C1385.41 147.059 1385.28 146.815 1385.02 146.634C1384.77 146.453 1384.34 146.334 1383.73 146.277L1382.91 146.192C1381.88 146.079 1381.08 145.784 1380.53 145.308C1379.97 144.832 1379.7 144.197 1379.7 143.404C1379.7 142.769 1379.86 142.237 1380.17 141.806C1380.49 141.375 1380.93 141.052 1381.48 140.837C1382.05 140.61 1382.69 140.497 1383.42 140.497C1384.55 140.497 1385.47 140.746 1386.17 141.245C1386.88 141.744 1387.24 142.475 1387.28 143.438H1385.15C1385.13 143.121 1384.97 142.849 1384.68 142.622C1384.38 142.395 1383.96 142.282 1383.4 142.282C1382.9 142.282 1382.52 142.378 1382.25 142.571C1381.97 142.764 1381.84 143.013 1381.84 143.319C1381.84 143.614 1381.95 143.84 1382.16 143.999C1382.39 144.158 1382.75 144.265 1383.25 144.322L1384.07 144.407C1385.15 144.52 1386 144.821 1386.62 145.308C1387.24 145.795 1387.55 146.453 1387.55 147.28C1387.55 147.892 1387.38 148.425 1387.04 148.878C1386.71 149.32 1386.25 149.666 1385.65 149.915C1385.05 150.164 1384.34 150.289 1383.52 150.289Z" fill="white"/>
<rect x="1242" y="167" width="158" height="20" rx="10" fill="white"/>
<rect x="1201" y="457" width="225" height="83" rx="20" fill="url(#paint4_linear_49_220)"/>
<path d="M1229.6 505L1225.88 490.4H1228.82L1231.84 503.1L1231.06 502.64H1233.06L1232.18 503.1L1234.56 490.96H1237L1234.04 505H1229.6ZM1238.32 505L1235.1 490.96H1237.64L1240.38 503.1L1239.52 502.64H1241.48L1240.72 503.1L1243.38 490.4H1246.16L1242.84 505H1238.32ZM1252.57 505.38C1251.63 505.38 1250.81 505.22 1250.11 504.9C1249.41 504.58 1248.83 504.153 1248.37 503.62C1247.91 503.073 1247.57 502.467 1247.33 501.8C1247.1 501.133 1246.99 500.453 1246.99 499.76V499.38C1246.99 498.66 1247.1 497.967 1247.33 497.3C1247.57 496.62 1247.91 496.02 1248.37 495.5C1248.83 494.967 1249.41 494.547 1250.09 494.24C1250.77 493.92 1251.55 493.76 1252.45 493.76C1253.62 493.76 1254.6 494.02 1255.39 494.54C1256.19 495.047 1256.79 495.72 1257.19 496.56C1257.59 497.387 1257.79 498.28 1257.79 499.24V500.24H1248.17V498.54H1256.05L1255.19 499.38C1255.19 498.687 1255.09 498.093 1254.89 497.6C1254.69 497.107 1254.38 496.727 1253.97 496.46C1253.57 496.193 1253.06 496.06 1252.45 496.06C1251.83 496.06 1251.31 496.2 1250.89 496.48C1250.46 496.76 1250.13 497.167 1249.91 497.7C1249.69 498.22 1249.59 498.847 1249.59 499.58C1249.59 500.26 1249.69 500.867 1249.91 501.4C1250.12 501.92 1250.45 502.333 1250.89 502.64C1251.33 502.933 1251.89 503.08 1252.57 503.08C1253.25 503.08 1253.8 502.947 1254.23 502.68C1254.65 502.4 1254.93 502.06 1255.05 501.66H1257.61C1257.45 502.407 1257.14 503.06 1256.69 503.62C1256.23 504.18 1255.65 504.613 1254.95 504.92C1254.25 505.227 1253.46 505.38 1252.57 505.38ZM1260.63 505V494.14H1263.41V505H1260.63ZM1259.11 496.22V494.14H1263.41V496.22H1259.11ZM1261.65 492.84C1261.1 492.84 1260.7 492.7 1260.43 492.42C1260.18 492.127 1260.05 491.76 1260.05 491.32C1260.05 490.88 1260.18 490.52 1260.43 490.24C1260.7 489.96 1261.1 489.82 1261.65 489.82C1262.2 489.82 1262.6 489.96 1262.85 490.24C1263.1 490.52 1263.23 490.88 1263.23 491.32C1263.23 491.76 1263.1 492.127 1262.85 492.42C1262.6 492.7 1262.2 492.84 1261.65 492.84ZM1270.85 509.28C1270.33 509.28 1269.8 509.26 1269.25 509.22C1268.72 509.18 1268.22 509.127 1267.75 509.06V506.74C1268.23 506.793 1268.75 506.84 1269.29 506.88C1269.84 506.933 1270.35 506.96 1270.83 506.96C1271.73 506.96 1272.45 506.853 1272.99 506.64C1273.55 506.427 1273.96 506.087 1274.21 505.62C1274.48 505.167 1274.61 504.587 1274.61 503.88V501.74L1275.21 500.38C1275.17 501.38 1274.97 502.233 1274.59 502.94C1274.22 503.633 1273.71 504.167 1273.07 504.54C1272.43 504.9 1271.69 505.08 1270.85 505.08C1270.11 505.08 1269.43 504.94 1268.81 504.66C1268.21 504.38 1267.69 503.993 1267.25 503.5C1266.83 503.007 1266.49 502.427 1266.25 501.76C1266.01 501.093 1265.89 500.38 1265.89 499.62V499.2C1265.89 498.44 1266.01 497.733 1266.25 497.08C1266.51 496.413 1266.86 495.833 1267.31 495.34C1267.77 494.847 1268.31 494.467 1268.93 494.2C1269.56 493.933 1270.25 493.8 1271.01 493.8C1271.91 493.8 1272.68 493.993 1273.33 494.38C1274 494.767 1274.52 495.327 1274.89 496.06C1275.27 496.793 1275.47 497.693 1275.51 498.76L1275.03 498.84V494.14H1277.23V503.72C1277.23 505.04 1277.01 506.107 1276.55 506.92C1276.1 507.733 1275.4 508.327 1274.45 508.7C1273.52 509.087 1272.32 509.28 1270.85 509.28ZM1271.65 502.7C1272.19 502.7 1272.67 502.58 1273.11 502.34C1273.55 502.1 1273.91 501.753 1274.17 501.3C1274.44 500.847 1274.57 500.3 1274.57 499.66V498.96C1274.57 498.347 1274.43 497.827 1274.15 497.4C1273.89 496.973 1273.53 496.653 1273.09 496.44C1272.65 496.213 1272.17 496.1 1271.65 496.1C1271.07 496.1 1270.55 496.24 1270.09 496.52C1269.65 496.787 1269.31 497.167 1269.05 497.66C1268.8 498.153 1268.67 498.74 1268.67 499.42C1268.67 500.087 1268.8 500.667 1269.05 501.16C1269.31 501.653 1269.65 502.033 1270.09 502.3C1270.55 502.567 1271.07 502.7 1271.65 502.7ZM1280.27 505V490.4H1283.05V498.92H1282.57C1282.57 497.827 1282.71 496.9 1282.99 496.14C1283.27 495.38 1283.68 494.8 1284.23 494.4C1284.79 494 1285.49 493.8 1286.35 493.8H1286.47C1287.71 493.8 1288.65 494.227 1289.29 495.08C1289.93 495.933 1290.25 497.173 1290.25 498.8V505H1287.47V498.54C1287.47 497.847 1287.27 497.3 1286.87 496.9C1286.48 496.5 1285.97 496.3 1285.33 496.3C1284.65 496.3 1284.09 496.527 1283.67 496.98C1283.25 497.42 1283.05 498 1283.05 498.72V505H1280.27ZM1297.95 505.14C1296.95 505.14 1296.13 505.013 1295.47 504.76C1294.83 504.493 1294.35 504.053 1294.03 503.44C1293.71 502.813 1293.55 501.973 1293.55 500.92L1293.57 491.08H1296.17L1296.15 501.1C1296.15 501.633 1296.29 502.047 1296.57 502.34C1296.87 502.62 1297.28 502.76 1297.81 502.76H1299.51V505.14H1297.95ZM1291.83 496.18V494.14H1299.51V496.18H1291.83ZM1301.85 505V490.4H1304.63V498.92H1304.15C1304.15 497.827 1304.29 496.9 1304.57 496.14C1304.85 495.38 1305.26 494.8 1305.81 494.4C1306.37 494 1307.07 493.8 1307.93 493.8H1308.05C1309.29 493.8 1310.23 494.227 1310.87 495.08C1311.51 495.933 1311.83 497.173 1311.83 498.8V505H1309.05V498.54C1309.05 497.847 1308.85 497.3 1308.45 496.9C1308.06 496.5 1307.55 496.3 1306.91 496.3C1306.23 496.3 1305.67 496.527 1305.25 496.98C1304.83 497.42 1304.63 498 1304.63 498.72V505H1301.85ZM1315.34 505V494.14H1318.12V505H1315.34ZM1313.82 496.22V494.14H1318.12V496.22H1313.82ZM1316.36 492.84C1315.81 492.84 1315.4 492.7 1315.14 492.42C1314.88 492.127 1314.76 491.76 1314.76 491.32C1314.76 490.88 1314.88 490.52 1315.14 490.24C1315.4 489.96 1315.81 489.82 1316.36 489.82C1316.9 489.82 1317.3 489.96 1317.56 490.24C1317.81 490.52 1317.94 490.88 1317.94 491.32C1317.94 491.76 1317.81 492.127 1317.56 492.42C1317.3 492.7 1316.9 492.84 1316.36 492.84ZM1321.32 505V494.14H1323.52V498.8H1323.32C1323.32 497.693 1323.47 496.773 1323.76 496.04C1324.05 495.293 1324.49 494.733 1325.06 494.36C1325.65 493.987 1326.37 493.8 1327.24 493.8H1327.36C1328.65 493.8 1329.63 494.22 1330.3 495.06C1330.97 495.887 1331.3 497.127 1331.3 498.78V505H1328.52V498.54C1328.52 497.873 1328.33 497.333 1327.94 496.92C1327.57 496.507 1327.05 496.3 1326.38 496.3C1325.7 496.3 1325.15 496.513 1324.72 496.94C1324.31 497.353 1324.1 497.913 1324.1 498.62V505H1321.32ZM1338.53 509.28C1338.01 509.28 1337.48 509.26 1336.93 509.22C1336.4 509.18 1335.9 509.127 1335.43 509.06V506.74C1335.91 506.793 1336.42 506.84 1336.97 506.88C1337.52 506.933 1338.03 506.96 1338.51 506.96C1339.4 506.96 1340.12 506.853 1340.67 506.64C1341.23 506.427 1341.64 506.087 1341.89 505.62C1342.16 505.167 1342.29 504.587 1342.29 503.88V501.74L1342.89 500.38C1342.85 501.38 1342.64 502.233 1342.27 502.94C1341.9 503.633 1341.39 504.167 1340.75 504.54C1340.11 504.9 1339.37 505.08 1338.53 505.08C1337.78 505.08 1337.1 504.94 1336.49 504.66C1335.89 504.38 1335.37 503.993 1334.93 503.5C1334.5 503.007 1334.17 502.427 1333.93 501.76C1333.69 501.093 1333.57 500.38 1333.57 499.62V499.2C1333.57 498.44 1333.69 497.733 1333.93 497.08C1334.18 496.413 1334.54 495.833 1334.99 495.34C1335.44 494.847 1335.98 494.467 1336.61 494.2C1337.24 493.933 1337.93 493.8 1338.69 493.8C1339.58 493.8 1340.36 493.993 1341.01 494.38C1341.68 494.767 1342.2 495.327 1342.57 496.06C1342.94 496.793 1343.15 497.693 1343.19 498.76L1342.71 498.84V494.14H1344.91V503.72C1344.91 505.04 1344.68 506.107 1344.23 506.92C1343.78 507.733 1343.08 508.327 1342.13 508.7C1341.2 509.087 1340 509.28 1338.53 509.28ZM1339.33 502.7C1339.86 502.7 1340.35 502.58 1340.79 502.34C1341.23 502.1 1341.58 501.753 1341.85 501.3C1342.12 500.847 1342.25 500.3 1342.25 499.66V498.96C1342.25 498.347 1342.11 497.827 1341.83 497.4C1341.56 496.973 1341.21 496.653 1340.77 496.44C1340.33 496.213 1339.85 496.1 1339.33 496.1C1338.74 496.1 1338.22 496.24 1337.77 496.52C1337.33 496.787 1336.98 497.167 1336.73 497.66C1336.48 498.153 1336.35 498.74 1336.35 499.42C1336.35 500.087 1336.48 500.667 1336.73 501.16C1336.98 501.653 1337.33 502.033 1337.77 502.3C1338.22 502.567 1338.74 502.7 1339.33 502.7ZM1354.92 500.52V498.06H1357.76C1358.33 498.06 1358.81 497.947 1359.2 497.72C1359.6 497.493 1359.9 497.18 1360.1 496.78C1360.31 496.38 1360.42 495.92 1360.42 495.4C1360.42 494.88 1360.31 494.42 1360.1 494.02C1359.9 493.62 1359.6 493.313 1359.2 493.1C1358.81 492.873 1358.33 492.76 1357.76 492.76H1354.92V490.3H1357.52C1358.74 490.3 1359.78 490.5 1360.64 490.9C1361.5 491.3 1362.16 491.873 1362.62 492.62C1363.07 493.353 1363.3 494.227 1363.3 495.24V495.56C1363.3 496.573 1363.07 497.453 1362.62 498.2C1362.16 498.933 1361.5 499.507 1360.64 499.92C1359.78 500.32 1358.74 500.52 1357.52 500.52H1354.92ZM1352.48 505V490.3H1355.32V505H1352.48ZM1368.08 505.08V502.44H1371.1C1371.86 502.44 1372.54 502.327 1373.12 502.1C1373.72 501.86 1374.23 501.527 1374.64 501.1C1375.06 500.673 1375.37 500.173 1375.58 499.6C1375.81 499.013 1375.92 498.367 1375.92 497.66C1375.92 496.927 1375.81 496.273 1375.58 495.7C1375.37 495.113 1375.06 494.613 1374.64 494.2C1374.23 493.787 1373.72 493.473 1373.12 493.26C1372.54 493.047 1371.86 492.94 1371.1 492.94H1368.08V490.3H1370.92C1372.24 490.3 1373.4 490.493 1374.38 490.88C1375.37 491.267 1376.19 491.8 1376.84 492.48C1377.5 493.147 1377.98 493.913 1378.3 494.78C1378.64 495.633 1378.8 496.52 1378.8 497.44V497.88C1378.8 498.76 1378.64 499.627 1378.3 500.48C1377.98 501.333 1377.5 502.107 1376.84 502.8C1376.19 503.493 1375.37 504.047 1374.38 504.46C1373.4 504.873 1372.24 505.08 1370.92 505.08H1368.08ZM1365.64 505.08V490.3H1368.48V505.08H1365.64ZM1381.34 505V490.4H1384.18V505H1381.34ZM1383.78 498.92V496.52L1389.62 496.5V498.9L1383.78 498.92ZM1383.78 492.8V490.4H1389.9V492.8H1383.78ZM1396.14 505.34C1394.65 505.34 1393.47 505.027 1392.62 504.4C1391.78 503.76 1391.34 502.88 1391.3 501.76H1393.8C1393.84 502.133 1394.05 502.473 1394.42 502.78C1394.79 503.087 1395.38 503.24 1396.18 503.24C1396.85 503.24 1397.37 503.12 1397.76 502.88C1398.16 502.64 1398.36 502.313 1398.36 501.9C1398.36 501.54 1398.21 501.253 1397.9 501.04C1397.61 500.827 1397.1 500.687 1396.38 500.62L1395.42 500.52C1394.21 500.387 1393.27 500.04 1392.62 499.48C1391.97 498.92 1391.64 498.173 1391.64 497.24C1391.64 496.493 1391.83 495.867 1392.2 495.36C1392.57 494.853 1393.09 494.473 1393.74 494.22C1394.41 493.953 1395.17 493.82 1396.02 493.82C1397.35 493.82 1398.43 494.113 1399.26 494.7C1400.09 495.287 1400.52 496.147 1400.56 497.28H1398.06C1398.03 496.907 1397.85 496.587 1397.5 496.32C1397.15 496.053 1396.65 495.92 1396 495.92C1395.41 495.92 1394.96 496.033 1394.64 496.26C1394.32 496.487 1394.16 496.78 1394.16 497.14C1394.16 497.487 1394.29 497.753 1394.54 497.94C1394.81 498.127 1395.23 498.253 1395.82 498.32L1396.78 498.42C1398.06 498.553 1399.06 498.907 1399.78 499.48C1400.51 500.053 1400.88 500.827 1400.88 501.8C1400.88 502.52 1400.68 503.147 1400.28 503.68C1399.89 504.2 1399.35 504.607 1398.64 504.9C1397.93 505.193 1397.1 505.34 1396.14 505.34Z" fill="white"/>
<rect x="931" y="457" width="225" height="83" rx="20" fill="url(#paint5_linear_49_220)"/>
<path d="M977.828 500.52V498.06H980.668C981.241 498.06 981.721 497.947 982.108 497.72C982.508 497.493 982.808 497.18 983.008 496.78C983.221 496.38 983.328 495.92 983.328 495.4C983.328 494.88 983.221 494.42 983.008 494.02C982.808 493.62 982.508 493.313 982.108 493.1C981.721 492.873 981.241 492.76 980.668 492.76H977.828V490.3H980.428C981.655 490.3 982.695 490.5 983.548 490.9C984.415 491.3 985.075 491.873 985.528 492.62C985.981 493.353 986.208 494.227 986.208 495.24V495.56C986.208 496.573 985.981 497.453 985.528 498.2C985.075 498.933 984.415 499.507 983.548 499.92C982.695 500.32 981.655 500.52 980.428 500.52H977.828ZM975.388 505V490.3H978.228V505H975.388ZM990.992 505.08V502.44H994.012C994.772 502.44 995.445 502.327 996.032 502.1C996.632 501.86 997.139 501.527 997.552 501.1C997.965 500.673 998.279 500.173 998.492 499.6C998.719 499.013 998.832 498.367 998.832 497.66C998.832 496.927 998.719 496.273 998.492 495.7C998.279 495.113 997.965 494.613 997.552 494.2C997.139 493.787 996.632 493.473 996.032 493.26C995.445 493.047 994.772 492.94 994.012 492.94H990.992V490.3H993.832C995.152 490.3 996.305 490.493 997.292 490.88C998.279 491.267 999.099 491.8 999.752 492.48C1000.41 493.147 1000.89 493.913 1001.21 494.78C1001.55 495.633 1001.71 496.52 1001.71 497.44V497.88C1001.71 498.76 1001.55 499.627 1001.21 500.48C1000.89 501.333 1000.41 502.107 999.752 502.8C999.099 503.493 998.279 504.047 997.292 504.46C996.305 504.873 995.152 505.08 993.832 505.08H990.992ZM988.552 505.08V490.3H991.392V505.08H988.552ZM1004.26 505V490.4H1007.1V505H1004.26ZM1006.7 498.92V496.52L1012.54 496.5V498.9L1006.7 498.92ZM1006.7 492.8V490.4H1012.82V492.8H1006.7ZM1019.05 505.34C1017.56 505.34 1016.38 505.027 1015.53 504.4C1014.69 503.76 1014.25 502.88 1014.21 501.76H1016.71C1016.75 502.133 1016.96 502.473 1017.33 502.78C1017.7 503.087 1018.29 503.24 1019.09 503.24C1019.76 503.24 1020.28 503.12 1020.67 502.88C1021.07 502.64 1021.27 502.313 1021.27 501.9C1021.27 501.54 1021.12 501.253 1020.81 501.04C1020.52 500.827 1020.01 500.687 1019.29 500.62L1018.33 500.52C1017.12 500.387 1016.18 500.04 1015.53 499.48C1014.88 498.92 1014.55 498.173 1014.55 497.24C1014.55 496.493 1014.74 495.867 1015.11 495.36C1015.48 494.853 1016 494.473 1016.65 494.22C1017.32 493.953 1018.08 493.82 1018.93 493.82C1020.26 493.82 1021.34 494.113 1022.17 494.7C1023 495.287 1023.43 496.147 1023.47 497.28H1020.97C1020.94 496.907 1020.76 496.587 1020.41 496.32C1020.06 496.053 1019.56 495.92 1018.91 495.92C1018.32 495.92 1017.87 496.033 1017.55 496.26C1017.23 496.487 1017.07 496.78 1017.07 497.14C1017.07 497.487 1017.2 497.753 1017.45 497.94C1017.72 498.127 1018.14 498.253 1018.73 498.32L1019.69 498.42C1020.97 498.553 1021.97 498.907 1022.69 499.48C1023.42 500.053 1023.79 500.827 1023.79 501.8C1023.79 502.52 1023.59 503.147 1023.19 503.68C1022.8 504.2 1022.26 504.607 1021.55 504.9C1020.84 505.193 1020.01 505.34 1019.05 505.34ZM1030.62 505V490.3H1033.46V505H1030.62ZM1039.54 505L1035.06 498.64H1038.24L1042.86 505H1039.54ZM1032.62 500.12V497.82H1036.34C1036.86 497.82 1037.31 497.713 1037.68 497.5C1038.07 497.287 1038.37 496.987 1038.58 496.6C1038.8 496.213 1038.9 495.773 1038.9 495.28C1038.9 494.773 1038.8 494.327 1038.58 493.94C1038.37 493.553 1038.07 493.253 1037.68 493.04C1037.31 492.827 1036.86 492.72 1036.34 492.72H1032.62V490.3H1036.04C1037.22 490.3 1038.23 490.473 1039.08 490.82C1039.95 491.167 1040.62 491.693 1041.08 492.4C1041.55 493.107 1041.78 493.993 1041.78 495.06V495.38C1041.78 496.46 1041.54 497.347 1041.06 498.04C1040.6 498.733 1039.94 499.253 1039.08 499.6C1038.23 499.947 1037.22 500.12 1036.04 500.12H1032.62ZM1051.38 505V501.78H1050.92V498.2C1050.92 497.573 1050.76 497.107 1050.46 496.8C1050.15 496.493 1049.68 496.34 1049.04 496.34C1048.7 496.34 1048.3 496.347 1047.84 496.36C1047.37 496.373 1046.9 496.393 1046.42 496.42C1045.95 496.433 1045.53 496.453 1045.16 496.48V494.12C1045.46 494.093 1045.81 494.067 1046.2 494.04C1046.58 494.013 1046.98 494 1047.38 494C1047.79 493.987 1048.18 493.98 1048.54 493.98C1049.66 493.98 1050.58 494.127 1051.32 494.42C1052.06 494.713 1052.62 495.173 1053 495.8C1053.38 496.427 1053.58 497.247 1053.58 498.26V505H1051.38ZM1047.88 505.28C1047.09 505.28 1046.4 505.14 1045.8 504.86C1045.21 504.58 1044.75 504.18 1044.42 503.66C1044.1 503.14 1043.94 502.513 1043.94 501.78C1043.94 500.98 1044.13 500.327 1044.52 499.82C1044.92 499.313 1045.47 498.933 1046.18 498.68C1046.9 498.427 1047.74 498.3 1048.7 498.3H1051.22V499.96H1048.66C1048.02 499.96 1047.52 500.12 1047.18 500.44C1046.84 500.747 1046.68 501.147 1046.68 501.64C1046.68 502.133 1046.84 502.533 1047.18 502.84C1047.52 503.147 1048.02 503.3 1048.66 503.3C1049.04 503.3 1049.4 503.233 1049.72 503.1C1050.05 502.953 1050.32 502.713 1050.54 502.38C1050.76 502.033 1050.89 501.567 1050.92 500.98L1051.6 501.76C1051.53 502.52 1051.34 503.16 1051.04 503.68C1050.74 504.2 1050.33 504.6 1049.8 504.88C1049.28 505.147 1048.64 505.28 1047.88 505.28ZM1056.55 505V494.14H1058.75V498.8H1058.55C1058.55 497.693 1058.7 496.773 1058.99 496.04C1059.29 495.293 1059.72 494.733 1060.29 494.36C1060.88 493.987 1061.61 493.8 1062.47 493.8H1062.59C1063.89 493.8 1064.87 494.22 1065.53 495.06C1066.2 495.887 1066.53 497.127 1066.53 498.78V505H1063.75V498.54C1063.75 497.873 1063.56 497.333 1063.17 496.92C1062.8 496.507 1062.28 496.3 1061.61 496.3C1060.93 496.3 1060.38 496.513 1059.95 496.94C1059.54 497.353 1059.33 497.913 1059.33 498.62V505H1056.55ZM1077.12 505L1073.48 499.92H1071.86L1076.48 494.14H1079.38L1075.12 499.48L1075.18 498.08L1080.26 505H1077.12ZM1069.52 505V490.4H1072.3V505H1069.52ZM1082.39 505V494.14H1085.17V505H1082.39ZM1080.87 496.22V494.14H1085.17V496.22H1080.87ZM1083.41 492.84C1082.86 492.84 1082.45 492.7 1082.19 492.42C1081.93 492.127 1081.81 491.76 1081.81 491.32C1081.81 490.88 1081.93 490.52 1082.19 490.24C1082.45 489.96 1082.86 489.82 1083.41 489.82C1083.95 489.82 1084.35 489.96 1084.61 490.24C1084.86 490.52 1084.99 490.88 1084.99 491.32C1084.99 491.76 1084.86 492.127 1084.61 492.42C1084.35 492.7 1083.95 492.84 1083.41 492.84ZM1088.37 505V494.14H1090.57V498.8H1090.37C1090.37 497.693 1090.52 496.773 1090.81 496.04C1091.1 495.293 1091.54 494.733 1092.11 494.36C1092.7 493.987 1093.42 493.8 1094.29 493.8H1094.41C1095.7 493.8 1096.68 494.22 1097.35 495.06C1098.02 495.887 1098.35 497.127 1098.35 498.78V505H1095.57V498.54C1095.57 497.873 1095.38 497.333 1094.99 496.92C1094.62 496.507 1094.1 496.3 1093.43 496.3C1092.75 496.3 1092.2 496.513 1091.77 496.94C1091.36 497.353 1091.15 497.913 1091.15 498.62V505H1088.37ZM1105.58 509.28C1105.06 509.28 1104.53 509.26 1103.98 509.22C1103.45 509.18 1102.95 509.127 1102.48 509.06V506.74C1102.96 506.793 1103.47 506.84 1104.02 506.88C1104.57 506.933 1105.08 506.96 1105.56 506.96C1106.45 506.96 1107.17 506.853 1107.72 506.64C1108.28 506.427 1108.69 506.087 1108.94 505.62C1109.21 505.167 1109.34 504.587 1109.34 503.88V501.74L1109.94 500.38C1109.9 501.38 1109.69 502.233 1109.32 502.94C1108.95 503.633 1108.44 504.167 1107.8 504.54C1107.16 504.9 1106.42 505.08 1105.58 505.08C1104.83 505.08 1104.15 504.94 1103.54 504.66C1102.94 504.38 1102.42 503.993 1101.98 503.5C1101.55 503.007 1101.22 502.427 1100.98 501.76C1100.74 501.093 1100.62 500.38 1100.62 499.62V499.2C1100.62 498.44 1100.74 497.733 1100.98 497.08C1101.23 496.413 1101.59 495.833 1102.04 495.34C1102.49 494.847 1103.03 494.467 1103.66 494.2C1104.29 493.933 1104.98 493.8 1105.74 493.8C1106.63 493.8 1107.41 493.993 1108.06 494.38C1108.73 494.767 1109.25 495.327 1109.62 496.06C1109.99 496.793 1110.2 497.693 1110.24 498.76L1109.76 498.84V494.14H1111.96V503.72C1111.96 505.04 1111.73 506.107 1111.28 506.92C1110.83 507.733 1110.13 508.327 1109.18 508.7C1108.25 509.087 1107.05 509.28 1105.58 509.28ZM1106.38 502.7C1106.91 502.7 1107.4 502.58 1107.84 502.34C1108.28 502.1 1108.63 501.753 1108.9 501.3C1109.17 500.847 1109.3 500.3 1109.3 499.66V498.96C1109.3 498.347 1109.16 497.827 1108.88 497.4C1108.61 496.973 1108.26 496.653 1107.82 496.44C1107.38 496.213 1106.9 496.1 1106.38 496.1C1105.79 496.1 1105.27 496.24 1104.82 496.52C1104.38 496.787 1104.03 497.167 1103.78 497.66C1103.53 498.153 1103.4 498.74 1103.4 499.42C1103.4 500.087 1103.53 500.667 1103.78 501.16C1104.03 501.653 1104.38 502.033 1104.82 502.3C1105.27 502.567 1105.79 502.7 1106.38 502.7Z" fill="white"/>
<rect x="662" y="457" width="225" height="83" rx="20" fill="url(#paint6_linear_49_220)"/>
<path d="M722.599 505V490.4H725.379V505H722.599ZM724.979 505V502.6H731.599V505H724.979ZM724.979 498.78V496.38H731.079V498.78H724.979ZM724.979 492.8V490.4H731.439V492.8H724.979ZM736.375 505L732.975 494.14H735.835L739.095 505H736.375ZM737.195 505V502.72H740.135V505H737.195ZM738.295 505L741.095 494.14H743.775L740.835 505H738.295ZM752.318 505V501.78H751.858V498.2C751.858 497.573 751.705 497.107 751.398 496.8C751.092 496.493 750.618 496.34 749.978 496.34C749.645 496.34 749.245 496.347 748.778 496.36C748.312 496.373 747.838 496.393 747.358 496.42C746.892 496.433 746.472 496.453 746.098 496.48V494.12C746.405 494.093 746.752 494.067 747.138 494.04C747.525 494.013 747.918 494 748.318 494C748.732 493.987 749.118 493.98 749.478 493.98C750.598 493.98 751.525 494.127 752.258 494.42C753.005 494.713 753.565 495.173 753.938 495.8C754.325 496.427 754.518 497.247 754.518 498.26V505H752.318ZM748.818 505.28C748.032 505.28 747.338 505.14 746.738 504.86C746.152 504.58 745.692 504.18 745.358 503.66C745.038 503.14 744.878 502.513 744.878 501.78C744.878 500.98 745.072 500.327 745.458 499.82C745.858 499.313 746.412 498.933 747.118 498.68C747.838 498.427 748.678 498.3 749.638 498.3H752.158V499.96H749.598C748.958 499.96 748.465 500.12 748.118 500.44C747.785 500.747 747.618 501.147 747.618 501.64C747.618 502.133 747.785 502.533 748.118 502.84C748.465 503.147 748.958 503.3 749.598 503.3C749.985 503.3 750.338 503.233 750.658 503.1C750.992 502.953 751.265 502.713 751.478 502.38C751.705 502.033 751.832 501.567 751.858 500.98L752.538 501.76C752.472 502.52 752.285 503.16 751.978 503.68C751.685 504.2 751.272 504.6 750.738 504.88C750.218 505.147 749.578 505.28 748.818 505.28ZM757.636 505V490.4H760.416V505H757.636ZM756.276 492.48V490.4H760.416V492.48H756.276ZM767.29 505.34C766.036 505.34 765.063 504.927 764.37 504.1C763.69 503.273 763.35 502.047 763.35 500.42V494.12H766.13V500.66C766.13 501.327 766.316 501.86 766.69 502.26C767.063 502.647 767.57 502.84 768.21 502.84C768.85 502.84 769.37 502.633 769.77 502.22C770.183 501.807 770.39 501.247 770.39 500.54V494.12H773.17V505H770.97V500.38H771.19C771.19 501.473 771.05 502.387 770.77 503.12C770.49 503.853 770.07 504.407 769.51 504.78C768.95 505.153 768.25 505.34 767.41 505.34H767.29ZM782.943 505V501.78H782.483V498.2C782.483 497.573 782.33 497.107 782.023 496.8C781.717 496.493 781.243 496.34 780.603 496.34C780.27 496.34 779.87 496.347 779.403 496.36C778.937 496.373 778.463 496.393 777.983 496.42C777.517 496.433 777.097 496.453 776.723 496.48V494.12C777.03 494.093 777.377 494.067 777.763 494.04C778.15 494.013 778.543 494 778.943 494C779.357 493.987 779.743 493.98 780.103 493.98C781.223 493.98 782.15 494.127 782.883 494.42C783.63 494.713 784.19 495.173 784.563 495.8C784.95 496.427 785.143 497.247 785.143 498.26V505H782.943ZM779.443 505.28C778.657 505.28 777.963 505.14 777.363 504.86C776.777 504.58 776.317 504.18 775.983 503.66C775.663 503.14 775.503 502.513 775.503 501.78C775.503 500.98 775.697 500.327 776.083 499.82C776.483 499.313 777.037 498.933 777.743 498.68C778.463 498.427 779.303 498.3 780.263 498.3H782.783V499.96H780.223C779.583 499.96 779.09 500.12 778.743 500.44C778.41 500.747 778.243 501.147 778.243 501.64C778.243 502.133 778.41 502.533 778.743 502.84C779.09 503.147 779.583 503.3 780.223 503.3C780.61 503.3 780.963 503.233 781.283 503.1C781.617 502.953 781.89 502.713 782.103 502.38C782.33 502.033 782.457 501.567 782.483 500.98L783.163 501.76C783.097 502.52 782.91 503.16 782.603 503.68C782.31 504.2 781.897 504.6 781.363 504.88C780.843 505.147 780.203 505.28 779.443 505.28ZM792.841 505.14C791.841 505.14 791.014 505.013 790.361 504.76C789.721 504.493 789.241 504.053 788.921 503.44C788.601 502.813 788.441 501.973 788.441 500.92L788.461 491.08H791.061L791.041 501.1C791.041 501.633 791.181 502.047 791.461 502.34C791.754 502.62 792.168 502.76 792.701 502.76H794.401V505.14H792.841ZM786.721 496.18V494.14H794.401V496.18H786.721ZM797.254 505V494.14H800.034V505H797.254ZM795.734 496.22V494.14H800.034V496.22H795.734ZM798.274 492.84C797.728 492.84 797.321 492.7 797.054 492.42C796.801 492.127 796.674 491.76 796.674 491.32C796.674 490.88 796.801 490.52 797.054 490.24C797.321 489.96 797.728 489.82 798.274 489.82C798.821 489.82 799.221 489.96 799.474 490.24C799.728 490.52 799.854 490.88 799.854 491.32C799.854 491.76 799.728 492.127 799.474 492.42C799.221 492.7 798.821 492.84 798.274 492.84ZM808.458 505.38C807.498 505.38 806.652 505.227 805.918 504.92C805.185 504.613 804.565 504.2 804.058 503.68C803.552 503.147 803.165 502.547 802.898 501.88C802.645 501.213 802.518 500.52 802.518 499.8V499.38C802.518 498.633 802.652 497.927 802.918 497.26C803.198 496.58 803.592 495.98 804.098 495.46C804.618 494.927 805.245 494.513 805.978 494.22C806.712 493.913 807.538 493.76 808.458 493.76C809.378 493.76 810.205 493.913 810.938 494.22C811.672 494.513 812.292 494.927 812.798 495.46C813.318 495.98 813.712 496.58 813.978 497.26C814.245 497.927 814.378 498.633 814.378 499.38V499.8C814.378 500.52 814.245 501.213 813.978 501.88C813.725 502.547 813.345 503.147 812.838 503.68C812.332 504.2 811.712 504.613 810.978 504.92C810.245 505.227 809.405 505.38 808.458 505.38ZM808.458 503C809.138 503 809.712 502.853 810.178 502.56C810.645 502.253 810.998 501.847 811.238 501.34C811.478 500.82 811.598 500.233 811.598 499.58C811.598 498.913 811.472 498.327 811.218 497.82C810.978 497.3 810.618 496.893 810.138 496.6C809.672 496.293 809.112 496.14 808.458 496.14C807.805 496.14 807.238 496.293 806.758 496.6C806.292 496.893 805.932 497.3 805.678 497.82C805.425 498.327 805.298 498.913 805.298 499.58C805.298 500.233 805.418 500.82 805.658 501.34C805.912 501.847 806.272 502.253 806.738 502.56C807.205 502.853 807.778 503 808.458 503ZM816.812 505V494.14H819.012V498.8H818.812C818.812 497.693 818.959 496.773 819.252 496.04C819.546 495.293 819.979 494.733 820.552 494.36C821.139 493.987 821.866 493.8 822.732 493.8H822.852C824.146 493.8 825.126 494.22 825.792 495.06C826.459 495.887 826.792 497.127 826.792 498.78V505H824.012V498.54C824.012 497.873 823.819 497.333 823.432 496.92C823.059 496.507 822.539 496.3 821.872 496.3C821.192 496.3 820.639 496.513 820.212 496.94C819.799 497.353 819.592 497.913 819.592 498.62V505H816.812Z" fill="white"/>
<path d="M1193 501.5C1193.55 501.5 1194 501.052 1194 500.5C1194 499.948 1193.55 499.5 1193 499.5V501.5ZM1161.79 499.793C1161.4 500.183 1161.4 500.817 1161.79 501.207L1168.16 507.571C1168.55 507.962 1169.18 507.962 1169.57 507.571C1169.96 507.181 1169.96 506.547 1169.57 506.157L1163.91 500.5L1169.57 494.843C1169.96 494.453 1169.96 493.819 1169.57 493.429C1169.18 493.038 1168.55 493.038 1168.16 493.429L1161.79 499.793ZM1193 499.5H1162.5V501.5H1193V499.5Z" fill="black"/>
<path d="M924.5 501.5C925.052 501.5 925.5 501.052 925.5 500.5C925.5 499.948 925.052 499.5 924.5 499.5V501.5ZM893.293 499.793C892.902 500.183 892.902 500.817 893.293 501.207L899.657 507.571C900.047 507.962 900.681 507.962 901.071 507.571C901.462 507.181 901.462 506.547 901.071 506.157L895.414 500.5L901.071 494.843C901.462 494.453 901.462 493.819 901.071 493.429C900.681 493.038 900.047 493.038 899.657 493.429L893.293 499.793ZM924.5 499.5H894V501.5H924.5V499.5Z" fill="black"/>
<rect x="361" y="366" width="202" height="264" rx="20" fill="url(#paint7_linear_49_220)"/>
<rect x="374" y="383" width="175" height="112" rx="9" stroke="white" stroke-width="2" stroke-dasharray="5 5"/>
<rect x="374" y="503" width="175" height="112" rx="9" stroke="white" stroke-width="2" stroke-dasharray="5 5"/>
<path d="M391.624 446.38C390.33 446.38 389.237 446.173 388.344 445.76C387.464 445.347 386.79 444.78 386.324 444.06C385.857 443.327 385.624 442.5 385.624 441.58H388.404C388.404 441.967 388.51 442.347 388.724 442.72C388.937 443.08 389.277 443.373 389.744 443.6C390.224 443.827 390.85 443.94 391.624 443.94C392.317 443.94 392.897 443.84 393.364 443.64C393.83 443.44 394.177 443.18 394.404 442.86C394.63 442.527 394.744 442.153 394.744 441.74C394.744 441.22 394.524 440.807 394.084 440.5C393.644 440.18 392.964 439.98 392.044 439.9L390.764 439.8C389.364 439.68 388.244 439.247 387.404 438.5C386.577 437.74 386.164 436.74 386.164 435.5C386.164 434.567 386.384 433.767 386.824 433.1C387.264 432.42 387.877 431.9 388.664 431.54C389.464 431.167 390.397 430.98 391.464 430.98C392.57 430.98 393.524 431.173 394.324 431.56C395.124 431.947 395.744 432.493 396.184 433.2C396.624 433.893 396.844 434.713 396.844 435.66H394.064C394.064 435.26 393.964 434.893 393.764 434.56C393.577 434.213 393.29 433.94 392.904 433.74C392.53 433.527 392.05 433.42 391.464 433.42C390.904 433.42 390.437 433.513 390.064 433.7C389.69 433.887 389.41 434.14 389.224 434.46C389.037 434.78 388.944 435.127 388.944 435.5C388.944 435.953 389.11 436.353 389.444 436.7C389.777 437.033 390.304 437.227 391.024 437.28L392.304 437.4C393.344 437.48 394.257 437.7 395.044 438.06C395.83 438.42 396.437 438.907 396.864 439.52C397.304 440.133 397.524 440.873 397.524 441.74C397.524 442.66 397.284 443.473 396.804 444.18C396.324 444.873 395.637 445.413 394.744 445.8C393.864 446.187 392.824 446.38 391.624 446.38ZM403.6 446.34C402.347 446.34 401.374 445.927 400.68 445.1C400 444.273 399.66 443.047 399.66 441.42V435.12H402.44V441.66C402.44 442.327 402.627 442.86 403 443.26C403.374 443.647 403.88 443.84 404.52 443.84C405.16 443.84 405.68 443.633 406.08 443.22C406.494 442.807 406.7 442.247 406.7 441.54V435.12H409.48V446H407.28V441.38H407.5C407.5 442.473 407.36 443.387 407.08 444.12C406.8 444.853 406.38 445.407 405.82 445.78C405.26 446.153 404.56 446.34 403.72 446.34H403.6ZM412.674 446V435.14H414.874V439.8H414.674C414.674 438.707 414.814 437.793 415.094 437.06C415.374 436.313 415.787 435.753 416.334 435.38C416.894 434.993 417.587 434.8 418.414 434.8H418.534C419.374 434.8 420.067 434.993 420.614 435.38C421.174 435.753 421.587 436.313 421.854 437.06C422.134 437.793 422.274 438.707 422.274 439.8H421.574C421.574 438.707 421.714 437.793 421.994 437.06C422.287 436.313 422.707 435.753 423.254 435.38C423.814 434.993 424.507 434.8 425.334 434.8H425.454C426.294 434.8 426.994 434.993 427.554 435.38C428.114 435.753 428.534 436.313 428.814 437.06C429.107 437.793 429.254 438.707 429.254 439.8V446H426.474V439.54C426.474 438.86 426.3 438.32 425.954 437.92C425.607 437.507 425.114 437.3 424.474 437.3C423.834 437.3 423.32 437.513 422.934 437.94C422.547 438.353 422.354 438.913 422.354 439.62V446H419.574V439.54C419.574 438.86 419.4 438.32 419.054 437.92C418.707 437.507 418.214 437.3 417.574 437.3C416.934 437.3 416.42 437.513 416.034 437.94C415.647 438.353 415.454 438.913 415.454 439.62V446H412.674ZM432.225 446V435.14H434.425V439.8H434.225C434.225 438.707 434.365 437.793 434.645 437.06C434.925 436.313 435.338 435.753 435.885 435.38C436.445 434.993 437.138 434.8 437.965 434.8H438.085C438.925 434.8 439.618 434.993 440.165 435.38C440.725 435.753 441.138 436.313 441.405 437.06C441.685 437.793 441.825 438.707 441.825 439.8H441.125C441.125 438.707 441.265 437.793 441.545 437.06C441.838 436.313 442.258 435.753 442.805 435.38C443.365 434.993 444.058 434.8 444.885 434.8H445.005C445.845 434.8 446.545 434.993 447.105 435.38C447.665 435.753 448.085 436.313 448.365 437.06C448.658 437.793 448.805 438.707 448.805 439.8V446H446.025V439.54C446.025 438.86 445.851 438.32 445.505 437.92C445.158 437.507 444.665 437.3 444.025 437.3C443.385 437.3 442.871 437.513 442.485 437.94C442.098 438.353 441.905 438.913 441.905 439.62V446H439.125V439.54C439.125 438.86 438.951 438.32 438.605 437.92C438.258 437.507 437.765 437.3 437.125 437.3C436.485 437.3 435.971 437.513 435.585 437.94C435.198 438.353 435.005 438.913 435.005 439.62V446H432.225ZM458.355 446V442.78H457.895V439.2C457.895 438.573 457.742 438.107 457.435 437.8C457.129 437.493 456.655 437.34 456.015 437.34C455.682 437.34 455.282 437.347 454.815 437.36C454.349 437.373 453.875 437.393 453.395 437.42C452.929 437.433 452.509 437.453 452.135 437.48V435.12C452.442 435.093 452.789 435.067 453.175 435.04C453.562 435.013 453.955 435 454.355 435C454.769 434.987 455.155 434.98 455.515 434.98C456.635 434.98 457.562 435.127 458.295 435.42C459.042 435.713 459.602 436.173 459.975 436.8C460.362 437.427 460.555 438.247 460.555 439.26V446H458.355ZM454.855 446.28C454.069 446.28 453.375 446.14 452.775 445.86C452.189 445.58 451.729 445.18 451.395 444.66C451.075 444.14 450.915 443.513 450.915 442.78C450.915 441.98 451.109 441.327 451.495 440.82C451.895 440.313 452.449 439.933 453.155 439.68C453.875 439.427 454.715 439.3 455.675 439.3H458.195V440.96H455.635C454.995 440.96 454.502 441.12 454.155 441.44C453.822 441.747 453.655 442.147 453.655 442.64C453.655 443.133 453.822 443.533 454.155 443.84C454.502 444.147 454.995 444.3 455.635 444.3C456.022 444.3 456.375 444.233 456.695 444.1C457.029 443.953 457.302 443.713 457.515 443.38C457.742 443.033 457.869 442.567 457.895 441.98L458.575 442.76C458.509 443.52 458.322 444.16 458.015 444.68C457.722 445.2 457.309 445.6 456.775 445.88C456.255 446.147 455.615 446.28 454.855 446.28ZM463.533 446V435.14H465.733V439.74H465.673C465.673 438.18 466.006 437 466.673 436.2C467.34 435.4 468.32 435 469.613 435H470.013V437.42H469.253C468.32 437.42 467.593 437.673 467.073 438.18C466.566 438.673 466.313 439.393 466.313 440.34V446H463.533ZM472.393 446V435.14H475.173V446H472.393ZM470.873 437.22V435.14H475.173V437.22H470.873ZM473.413 433.84C472.866 433.84 472.46 433.7 472.193 433.42C471.94 433.127 471.813 432.76 471.813 432.32C471.813 431.88 471.94 431.52 472.193 431.24C472.46 430.96 472.866 430.82 473.413 430.82C473.96 430.82 474.36 430.96 474.613 431.24C474.866 431.52 474.993 431.88 474.993 432.32C474.993 432.76 474.866 433.127 474.613 433.42C474.36 433.7 473.96 433.84 473.413 433.84ZM477.677 446V443.8L483.037 437.36V437.68L482.617 437.12L482.957 437.28H477.657V435.14H485.937V437.34L480.577 443.78V443.48L481.017 444.04L480.677 443.86H486.157V446H477.677ZM494.898 446V442.78H494.438V439.2C494.438 438.573 494.285 438.107 493.978 437.8C493.672 437.493 493.198 437.34 492.558 437.34C492.225 437.34 491.825 437.347 491.358 437.36C490.892 437.373 490.418 437.393 489.938 437.42C489.472 437.433 489.052 437.453 488.678 437.48V435.12C488.985 435.093 489.332 435.067 489.718 435.04C490.105 435.013 490.498 435 490.898 435C491.312 434.987 491.698 434.98 492.058 434.98C493.178 434.98 494.105 435.127 494.838 435.42C495.585 435.713 496.145 436.173 496.518 436.8C496.905 437.427 497.098 438.247 497.098 439.26V446H494.898ZM491.398 446.28C490.612 446.28 489.918 446.14 489.318 445.86C488.732 445.58 488.272 445.18 487.938 444.66C487.618 444.14 487.458 443.513 487.458 442.78C487.458 441.98 487.652 441.327 488.038 440.82C488.438 440.313 488.992 439.933 489.698 439.68C490.418 439.427 491.258 439.3 492.218 439.3H494.738V440.96H492.178C491.538 440.96 491.045 441.12 490.698 441.44C490.365 441.747 490.198 442.147 490.198 442.64C490.198 443.133 490.365 443.533 490.698 443.84C491.045 444.147 491.538 444.3 492.178 444.3C492.565 444.3 492.918 444.233 493.238 444.1C493.572 443.953 493.845 443.713 494.058 443.38C494.285 443.033 494.412 442.567 494.438 441.98L495.118 442.76C495.052 443.52 494.865 444.16 494.558 444.68C494.265 445.2 493.852 445.6 493.318 445.88C492.798 446.147 492.158 446.28 491.398 446.28ZM504.796 446.14C503.796 446.14 502.969 446.013 502.316 445.76C501.676 445.493 501.196 445.053 500.876 444.44C500.556 443.813 500.396 442.973 500.396 441.92L500.416 432.08H503.016L502.996 442.1C502.996 442.633 503.136 443.047 503.416 443.34C503.709 443.62 504.123 443.76 504.656 443.76H506.356V446.14H504.796ZM498.676 437.18V435.14H506.356V437.18H498.676ZM509.209 446V435.14H511.989V446H509.209ZM507.689 437.22V435.14H511.989V437.22H507.689ZM510.229 433.84C509.683 433.84 509.276 433.7 509.009 433.42C508.756 433.127 508.629 432.76 508.629 432.32C508.629 431.88 508.756 431.52 509.009 431.24C509.276 430.96 509.683 430.82 510.229 430.82C510.776 430.82 511.176 430.96 511.429 431.24C511.683 431.52 511.809 431.88 511.809 432.32C511.809 432.76 511.683 433.127 511.429 433.42C511.176 433.7 510.776 433.84 510.229 433.84ZM520.413 446.38C519.453 446.38 518.607 446.227 517.873 445.92C517.14 445.613 516.52 445.2 516.013 444.68C515.507 444.147 515.12 443.547 514.853 442.88C514.6 442.213 514.473 441.52 514.473 440.8V440.38C514.473 439.633 514.607 438.927 514.873 438.26C515.153 437.58 515.547 436.98 516.053 436.46C516.573 435.927 517.2 435.513 517.933 435.22C518.667 434.913 519.493 434.76 520.413 434.76C521.333 434.76 522.16 434.913 522.893 435.22C523.627 435.513 524.247 435.927 524.753 436.46C525.273 436.98 525.667 437.58 525.933 438.26C526.2 438.927 526.333 439.633 526.333 440.38V440.8C526.333 441.52 526.2 442.213 525.933 442.88C525.68 443.547 525.3 444.147 524.793 444.68C524.287 445.2 523.667 445.613 522.933 445.92C522.2 446.227 521.36 446.38 520.413 446.38ZM520.413 444C521.093 444 521.667 443.853 522.133 443.56C522.6 443.253 522.953 442.847 523.193 442.34C523.433 441.82 523.553 441.233 523.553 440.58C523.553 439.913 523.427 439.327 523.173 438.82C522.933 438.3 522.573 437.893 522.093 437.6C521.627 437.293 521.067 437.14 520.413 437.14C519.76 437.14 519.193 437.293 518.713 437.6C518.247 437.893 517.887 438.3 517.633 438.82C517.38 439.327 517.253 439.913 517.253 440.58C517.253 441.233 517.373 441.82 517.613 442.34C517.867 442.847 518.227 443.253 518.693 443.56C519.16 443.853 519.733 444 520.413 444ZM528.768 446V435.14H530.968V439.8H530.768C530.768 438.693 530.914 437.773 531.208 437.04C531.501 436.293 531.934 435.733 532.508 435.36C533.094 434.987 533.821 434.8 534.688 434.8H534.808C536.101 434.8 537.081 435.22 537.747 436.06C538.414 436.887 538.748 438.127 538.748 439.78V446H535.968V439.54C535.968 438.873 535.774 438.333 535.388 437.92C535.014 437.507 534.494 437.3 533.828 437.3C533.148 437.3 532.594 437.513 532.168 437.94C531.754 438.353 531.548 438.913 531.548 439.62V446H528.768Z" fill="white"/>
<path d="M412.726 554.38C411.406 554.38 410.272 554.147 409.326 553.68C408.379 553.213 407.606 552.607 407.006 551.86C406.419 551.113 405.986 550.3 405.706 549.42C405.426 548.54 405.286 547.693 405.286 546.88V546.44C405.286 545.533 405.426 544.64 405.706 543.76C405.999 542.88 406.446 542.08 407.046 541.36C407.646 540.64 408.406 540.067 409.326 539.64C410.259 539.2 411.359 538.98 412.626 538.98C413.946 538.98 415.092 539.22 416.066 539.7C417.052 540.167 417.839 540.833 418.426 541.7C419.012 542.553 419.366 543.553 419.486 544.7H416.626C416.519 544.033 416.279 543.473 415.906 543.02C415.546 542.553 415.086 542.207 414.526 541.98C413.966 541.74 413.332 541.62 412.626 541.62C411.906 541.62 411.266 541.747 410.706 542C410.146 542.24 409.679 542.587 409.306 543.04C408.932 543.493 408.646 544.027 408.446 544.64C408.259 545.253 408.166 545.933 408.166 546.68C408.166 547.4 408.259 548.067 408.446 548.68C408.646 549.293 408.939 549.833 409.326 550.3C409.712 550.753 410.186 551.107 410.746 551.36C411.319 551.613 411.979 551.74 412.726 551.74C413.819 551.74 414.739 551.473 415.486 550.94C416.246 550.393 416.706 549.633 416.866 548.66H419.726C419.592 549.7 419.239 550.653 418.666 551.52C418.092 552.387 417.306 553.08 416.306 553.6C415.306 554.12 414.112 554.38 412.726 554.38ZM427.122 554.38C426.162 554.38 425.316 554.227 424.582 553.92C423.849 553.613 423.229 553.2 422.722 552.68C422.216 552.147 421.829 551.547 421.562 550.88C421.309 550.213 421.182 549.52 421.182 548.8V548.38C421.182 547.633 421.316 546.927 421.582 546.26C421.862 545.58 422.256 544.98 422.762 544.46C423.282 543.927 423.909 543.513 424.642 543.22C425.376 542.913 426.202 542.76 427.122 542.76C428.042 542.76 428.869 542.913 429.602 543.22C430.336 543.513 430.956 543.927 431.462 544.46C431.982 544.98 432.376 545.58 432.642 546.26C432.909 546.927 433.042 547.633 433.042 548.38V548.8C433.042 549.52 432.909 550.213 432.642 550.88C432.389 551.547 432.009 552.147 431.502 552.68C430.996 553.2 430.376 553.613 429.642 553.92C428.909 554.227 428.069 554.38 427.122 554.38ZM427.122 552C427.802 552 428.376 551.853 428.842 551.56C429.309 551.253 429.662 550.847 429.902 550.34C430.142 549.82 430.262 549.233 430.262 548.58C430.262 547.913 430.136 547.327 429.882 546.82C429.642 546.3 429.282 545.893 428.802 545.6C428.336 545.293 427.776 545.14 427.122 545.14C426.469 545.14 425.902 545.293 425.422 545.6C424.956 545.893 424.596 546.3 424.342 546.82C424.089 547.327 423.962 547.913 423.962 548.58C423.962 549.233 424.082 549.82 424.322 550.34C424.576 550.847 424.936 551.253 425.402 551.56C425.869 551.853 426.442 552 427.122 552ZM435.476 554V543.14H437.676V547.8H437.476C437.476 546.707 437.616 545.793 437.896 545.06C438.176 544.313 438.59 543.753 439.136 543.38C439.696 542.993 440.39 542.8 441.216 542.8H441.336C442.176 542.8 442.87 542.993 443.416 543.38C443.976 543.753 444.39 544.313 444.656 545.06C444.936 545.793 445.076 546.707 445.076 547.8H444.376C444.376 546.707 444.516 545.793 444.796 545.06C445.09 544.313 445.51 543.753 446.056 543.38C446.616 542.993 447.31 542.8 448.136 542.8H448.256C449.096 542.8 449.796 542.993 450.356 543.38C450.916 543.753 451.336 544.313 451.616 545.06C451.91 545.793 452.056 546.707 452.056 547.8V554H449.276V547.54C449.276 546.86 449.103 546.32 448.756 545.92C448.41 545.507 447.916 545.3 447.276 545.3C446.636 545.3 446.123 545.513 445.736 545.94C445.35 546.353 445.156 546.913 445.156 547.62V554H442.376V547.54C442.376 546.86 442.203 546.32 441.856 545.92C441.51 545.507 441.016 545.3 440.376 545.3C439.736 545.3 439.223 545.513 438.836 545.94C438.45 546.353 438.256 546.913 438.256 547.62V554H435.476ZM455.027 558V543.14H457.227V547.82L456.887 547.8C456.941 546.693 457.167 545.767 457.567 545.02C457.981 544.273 458.527 543.72 459.207 543.36C459.887 542.987 460.647 542.8 461.487 542.8C462.261 542.8 462.954 542.94 463.567 543.22C464.194 543.5 464.727 543.893 465.167 544.4C465.621 544.907 465.967 545.5 466.207 546.18C466.447 546.847 466.567 547.567 466.567 548.34V548.76C466.567 549.547 466.447 550.28 466.207 550.96C465.981 551.627 465.641 552.22 465.187 552.74C464.747 553.247 464.214 553.647 463.587 553.94C462.961 554.22 462.261 554.36 461.487 554.36C460.674 554.36 459.927 554.193 459.247 553.86C458.581 553.513 458.041 552.987 457.627 552.28C457.214 551.56 456.981 550.633 456.927 549.5L457.807 550.84V558H455.027ZM460.787 552.02C461.387 552.02 461.907 551.873 462.347 551.58C462.801 551.287 463.154 550.88 463.407 550.36C463.661 549.827 463.787 549.227 463.787 548.56C463.787 547.867 463.661 547.267 463.407 546.76C463.154 546.253 462.801 545.86 462.347 545.58C461.907 545.287 461.387 545.14 460.787 545.14C460.241 545.14 459.734 545.26 459.267 545.5C458.814 545.74 458.441 546.093 458.147 546.56C457.867 547.027 457.727 547.587 457.727 548.24V549.04C457.727 549.667 457.874 550.2 458.167 550.64C458.461 551.08 458.841 551.42 459.307 551.66C459.774 551.9 460.267 552.02 460.787 552.02ZM475.592 554V550.78H475.132V547.2C475.132 546.573 474.978 546.107 474.672 545.8C474.365 545.493 473.892 545.34 473.252 545.34C472.918 545.34 472.518 545.347 472.052 545.36C471.585 545.373 471.112 545.393 470.632 545.42C470.165 545.433 469.745 545.453 469.372 545.48V543.12C469.678 543.093 470.025 543.067 470.412 543.04C470.798 543.013 471.192 543 471.592 543C472.005 542.987 472.392 542.98 472.752 542.98C473.872 542.98 474.798 543.127 475.532 543.42C476.278 543.713 476.838 544.173 477.212 544.8C477.598 545.427 477.792 546.247 477.792 547.26V554H475.592ZM472.092 554.28C471.305 554.28 470.612 554.14 470.012 553.86C469.425 553.58 468.965 553.18 468.632 552.66C468.312 552.14 468.152 551.513 468.152 550.78C468.152 549.98 468.345 549.327 468.732 548.82C469.132 548.313 469.685 547.933 470.392 547.68C471.112 547.427 471.952 547.3 472.912 547.3H475.432V548.96H472.872C472.232 548.96 471.738 549.12 471.392 549.44C471.058 549.747 470.892 550.147 470.892 550.64C470.892 551.133 471.058 551.533 471.392 551.84C471.738 552.147 472.232 552.3 472.872 552.3C473.258 552.3 473.612 552.233 473.932 552.1C474.265 551.953 474.538 551.713 474.752 551.38C474.978 551.033 475.105 550.567 475.132 549.98L475.812 550.76C475.745 551.52 475.558 552.16 475.252 552.68C474.958 553.2 474.545 553.6 474.012 553.88C473.492 554.147 472.852 554.28 472.092 554.28ZM480.769 554V543.14H482.969V547.74H482.909C482.909 546.18 483.243 545 483.909 544.2C484.576 543.4 485.556 543 486.849 543H487.249V545.42H486.489C485.556 545.42 484.829 545.673 484.309 546.18C483.803 546.673 483.549 547.393 483.549 548.34V554H480.769ZM489.629 554V543.14H492.409V554H489.629ZM488.109 545.22V543.14H492.409V545.22H488.109ZM490.649 541.84C490.103 541.84 489.696 541.7 489.429 541.42C489.176 541.127 489.049 540.76 489.049 540.32C489.049 539.88 489.176 539.52 489.429 539.24C489.696 538.96 490.103 538.82 490.649 538.82C491.196 538.82 491.596 538.96 491.849 539.24C492.103 539.52 492.229 539.88 492.229 540.32C492.229 540.76 492.103 541.127 491.849 541.42C491.596 541.7 491.196 541.84 490.649 541.84ZM495.613 554V543.14H497.813V547.8H497.613C497.613 546.693 497.76 545.773 498.053 545.04C498.347 544.293 498.78 543.733 499.353 543.36C499.94 542.987 500.667 542.8 501.533 542.8H501.653C502.947 542.8 503.927 543.22 504.593 544.06C505.26 544.887 505.593 546.127 505.593 547.78V554H502.813V547.54C502.813 546.873 502.62 546.333 502.233 545.92C501.86 545.507 501.34 545.3 500.673 545.3C499.993 545.3 499.44 545.513 499.013 545.94C498.6 546.353 498.393 546.913 498.393 547.62V554H495.613ZM512.822 558.28C512.302 558.28 511.769 558.26 511.222 558.22C510.689 558.18 510.189 558.127 509.722 558.06V555.74C510.202 555.793 510.715 555.84 511.262 555.88C511.809 555.933 512.322 555.96 512.802 555.96C513.695 555.96 514.415 555.853 514.962 555.64C515.522 555.427 515.929 555.087 516.182 554.62C516.449 554.167 516.582 553.587 516.582 552.88V550.74L517.182 549.38C517.142 550.38 516.935 551.233 516.562 551.94C516.189 552.633 515.682 553.167 515.042 553.54C514.402 553.9 513.662 554.08 512.822 554.08C512.075 554.08 511.395 553.94 510.782 553.66C510.182 553.38 509.662 552.993 509.222 552.5C508.795 552.007 508.462 551.427 508.222 550.76C507.982 550.093 507.862 549.38 507.862 548.62V548.2C507.862 547.44 507.982 546.733 508.222 546.08C508.475 545.413 508.829 544.833 509.282 544.34C509.735 543.847 510.275 543.467 510.902 543.2C511.529 542.933 512.222 542.8 512.982 542.8C513.875 542.8 514.649 542.993 515.302 543.38C515.969 543.767 516.489 544.327 516.862 545.06C517.235 545.793 517.442 546.693 517.482 547.76L517.002 547.84V543.14H519.202V552.72C519.202 554.04 518.975 555.107 518.522 555.92C518.069 556.733 517.369 557.327 516.422 557.7C515.489 558.087 514.289 558.28 512.822 558.28ZM513.622 551.7C514.155 551.7 514.642 551.58 515.082 551.34C515.522 551.1 515.875 550.753 516.142 550.3C516.409 549.847 516.542 549.3 516.542 548.66V547.96C516.542 547.347 516.402 546.827 516.122 546.4C515.855 545.973 515.502 545.653 515.062 545.44C514.622 545.213 514.142 545.1 513.622 545.1C513.035 545.1 512.515 545.24 512.062 545.52C511.622 545.787 511.275 546.167 511.022 546.66C510.769 547.153 510.642 547.74 510.642 548.42C510.642 549.087 510.769 549.667 511.022 550.16C511.275 550.653 511.622 551.033 512.062 551.3C512.515 551.567 513.035 551.7 513.622 551.7ZM441.281 574.52V572.06H444.121C444.694 572.06 445.174 571.947 445.561 571.72C445.961 571.493 446.261 571.18 446.461 570.78C446.674 570.38 446.781 569.92 446.781 569.4C446.781 568.88 446.674 568.42 446.461 568.02C446.261 567.62 445.961 567.313 445.561 567.1C445.174 566.873 444.694 566.76 444.121 566.76H441.281V564.3H443.881C445.108 564.3 446.148 564.5 447.001 564.9C447.868 565.3 448.528 565.873 448.981 566.62C449.434 567.353 449.661 568.227 449.661 569.24V569.56C449.661 570.573 449.434 571.453 448.981 572.2C448.528 572.933 447.868 573.507 447.001 573.92C446.148 574.32 445.108 574.52 443.881 574.52H441.281ZM438.841 579V564.3H441.681V579H438.841ZM454.445 579.08V576.44H457.465C458.225 576.44 458.898 576.327 459.485 576.1C460.085 575.86 460.592 575.527 461.005 575.1C461.418 574.673 461.732 574.173 461.945 573.6C462.172 573.013 462.285 572.367 462.285 571.66C462.285 570.927 462.172 570.273 461.945 569.7C461.732 569.113 461.418 568.613 461.005 568.2C460.592 567.787 460.085 567.473 459.485 567.26C458.898 567.047 458.225 566.94 457.465 566.94H454.445V564.3H457.285C458.605 564.3 459.758 564.493 460.745 564.88C461.732 565.267 462.552 565.8 463.205 566.48C463.858 567.147 464.345 567.913 464.665 568.78C464.998 569.633 465.165 570.52 465.165 571.44V571.88C465.165 572.76 464.998 573.627 464.665 574.48C464.345 575.333 463.858 576.107 463.205 576.8C462.552 577.493 461.732 578.047 460.745 578.46C459.758 578.873 458.605 579.08 457.285 579.08H454.445ZM452.005 579.08V564.3H454.845V579.08H452.005ZM467.708 579V564.4H470.548V579H467.708ZM470.148 572.92V570.52L475.988 570.5V572.9L470.148 572.92ZM470.148 566.8V564.4H476.268V566.8H470.148ZM482.502 579.34C481.009 579.34 479.836 579.027 478.982 578.4C478.142 577.76 477.702 576.88 477.662 575.76H480.162C480.202 576.133 480.409 576.473 480.782 576.78C481.156 577.087 481.742 577.24 482.542 577.24C483.209 577.24 483.736 577.12 484.122 576.88C484.522 576.64 484.722 576.313 484.722 575.9C484.722 575.54 484.569 575.253 484.262 575.04C483.969 574.827 483.462 574.687 482.742 574.62L481.782 574.52C480.569 574.387 479.636 574.04 478.982 573.48C478.329 572.92 478.002 572.173 478.002 571.24C478.002 570.493 478.189 569.867 478.562 569.36C478.936 568.853 479.449 568.473 480.102 568.22C480.769 567.953 481.529 567.82 482.382 567.82C483.716 567.82 484.796 568.113 485.622 568.7C486.449 569.287 486.882 570.147 486.922 571.28H484.422C484.396 570.907 484.209 570.587 483.862 570.32C483.516 570.053 483.016 569.92 482.362 569.92C481.776 569.92 481.322 570.033 481.002 570.26C480.682 570.487 480.522 570.78 480.522 571.14C480.522 571.487 480.649 571.753 480.902 571.94C481.169 572.127 481.596 572.253 482.182 572.32L483.142 572.42C484.422 572.553 485.422 572.907 486.142 573.48C486.876 574.053 487.242 574.827 487.242 575.8C487.242 576.52 487.042 577.147 486.642 577.68C486.256 578.2 485.709 578.607 485.002 578.9C484.296 579.193 483.462 579.34 482.502 579.34Z" fill="white"/>
<path d="M264.293 504.293C263.902 504.683 263.902 505.317 264.293 505.707L270.657 512.071C271.047 512.462 271.681 512.462 272.071 512.071C272.462 511.681 272.462 511.047 272.071 510.657L266.414 505L272.071 499.343C272.462 498.953 272.462 498.319 272.071 497.929C271.681 497.538 271.047 497.538 270.657 497.929L264.293 504.293ZM349 506C349.552 506 350 505.552 350 505C350 504.448 349.552 504 349 504V506ZM265 506H349V504H265V506Z" fill="black"/>
<path d="M596.293 504.293C595.902 504.683 595.902 505.317 596.293 505.707L602.657 512.071C603.047 512.462 603.681 512.462 604.071 512.071C604.462 511.681 604.462 511.047 604.071 510.657L598.414 505L604.071 499.343C604.462 498.953 604.462 498.319 604.071 497.929C603.681 497.538 603.047 497.538 602.657 497.929L596.293 504.293ZM646 506C646.552 506 647 505.552 647 505C647 504.448 646.552 504 646 504L646 506ZM597 506L646 506L646 504L597 504L597 506Z" fill="black"/>
<path d="M71 469C71 457.954 79.9543 449 91 449H239C250.046 449 259 457.954 259 469V542C259 553.046 250.046 562 239 562H91C79.9543 562 71 553.046 71 542V469Z" fill="url(#paint8_linear_49_220)"/>
<path d="M111.599 512V497.4H114.379V512H111.599ZM113.979 512V509.6H120.599V512H113.979ZM113.979 505.78V503.38H120.079V505.78H113.979ZM113.979 499.8V497.4H120.439V499.8H113.979ZM125.375 512L121.975 501.14H124.835L128.095 512H125.375ZM126.195 512V509.72H129.135V512H126.195ZM127.295 512L130.095 501.14H132.775L129.835 512H127.295ZM141.318 512V508.78H140.858V505.2C140.858 504.573 140.705 504.107 140.398 503.8C140.092 503.493 139.618 503.34 138.978 503.34C138.645 503.34 138.245 503.347 137.778 503.36C137.312 503.373 136.838 503.393 136.358 503.42C135.892 503.433 135.472 503.453 135.098 503.48V501.12C135.405 501.093 135.752 501.067 136.138 501.04C136.525 501.013 136.918 501 137.318 501C137.732 500.987 138.118 500.98 138.478 500.98C139.598 500.98 140.525 501.127 141.258 501.42C142.005 501.713 142.565 502.173 142.938 502.8C143.325 503.427 143.518 504.247 143.518 505.26V512H141.318ZM137.818 512.28C137.032 512.28 136.338 512.14 135.738 511.86C135.152 511.58 134.692 511.18 134.358 510.66C134.038 510.14 133.878 509.513 133.878 508.78C133.878 507.98 134.072 507.327 134.458 506.82C134.858 506.313 135.412 505.933 136.118 505.68C136.838 505.427 137.678 505.3 138.638 505.3H141.158V506.96H138.598C137.958 506.96 137.465 507.12 137.118 507.44C136.785 507.747 136.618 508.147 136.618 508.64C136.618 509.133 136.785 509.533 137.118 509.84C137.465 510.147 137.958 510.3 138.598 510.3C138.985 510.3 139.338 510.233 139.658 510.1C139.992 509.953 140.265 509.713 140.478 509.38C140.705 509.033 140.832 508.567 140.858 507.98L141.538 508.76C141.472 509.52 141.285 510.16 140.978 510.68C140.685 511.2 140.272 511.6 139.738 511.88C139.218 512.147 138.578 512.28 137.818 512.28ZM146.636 512V497.4H149.416V512H146.636ZM145.276 499.48V497.4H149.416V499.48H145.276ZM156.29 512.34C155.036 512.34 154.063 511.927 153.37 511.1C152.69 510.273 152.35 509.047 152.35 507.42V501.12H155.13V507.66C155.13 508.327 155.316 508.86 155.69 509.26C156.063 509.647 156.57 509.84 157.21 509.84C157.85 509.84 158.37 509.633 158.77 509.22C159.183 508.807 159.39 508.247 159.39 507.54V501.12H162.17V512H159.97V507.38H160.19C160.19 508.473 160.05 509.387 159.77 510.12C159.49 510.853 159.07 511.407 158.51 511.78C157.95 512.153 157.25 512.34 156.41 512.34H156.29ZM171.943 512V508.78H171.483V505.2C171.483 504.573 171.33 504.107 171.023 503.8C170.717 503.493 170.243 503.34 169.603 503.34C169.27 503.34 168.87 503.347 168.403 503.36C167.937 503.373 167.463 503.393 166.983 503.42C166.517 503.433 166.097 503.453 165.723 503.48V501.12C166.03 501.093 166.377 501.067 166.763 501.04C167.15 501.013 167.543 501 167.943 501C168.357 500.987 168.743 500.98 169.103 500.98C170.223 500.98 171.15 501.127 171.883 501.42C172.63 501.713 173.19 502.173 173.563 502.8C173.95 503.427 174.143 504.247 174.143 505.26V512H171.943ZM168.443 512.28C167.657 512.28 166.963 512.14 166.363 511.86C165.777 511.58 165.317 511.18 164.983 510.66C164.663 510.14 164.503 509.513 164.503 508.78C164.503 507.98 164.697 507.327 165.083 506.82C165.483 506.313 166.037 505.933 166.743 505.68C167.463 505.427 168.303 505.3 169.263 505.3H171.783V506.96H169.223C168.583 506.96 168.09 507.12 167.743 507.44C167.41 507.747 167.243 508.147 167.243 508.64C167.243 509.133 167.41 509.533 167.743 509.84C168.09 510.147 168.583 510.3 169.223 510.3C169.61 510.3 169.963 510.233 170.283 510.1C170.617 509.953 170.89 509.713 171.103 509.38C171.33 509.033 171.457 508.567 171.483 507.98L172.163 508.76C172.097 509.52 171.91 510.16 171.603 510.68C171.31 511.2 170.897 511.6 170.363 511.88C169.843 512.147 169.203 512.28 168.443 512.28ZM181.841 512.14C180.841 512.14 180.014 512.013 179.361 511.76C178.721 511.493 178.241 511.053 177.921 510.44C177.601 509.813 177.441 508.973 177.441 507.92L177.461 498.08H180.061L180.041 508.1C180.041 508.633 180.181 509.047 180.461 509.34C180.754 509.62 181.168 509.76 181.701 509.76H183.401V512.14H181.841ZM175.721 503.18V501.14H183.401V503.18H175.721ZM186.254 512V501.14H189.034V512H186.254ZM184.734 503.22V501.14H189.034V503.22H184.734ZM187.274 499.84C186.728 499.84 186.321 499.7 186.054 499.42C185.801 499.127 185.674 498.76 185.674 498.32C185.674 497.88 185.801 497.52 186.054 497.24C186.321 496.96 186.728 496.82 187.274 496.82C187.821 496.82 188.221 496.96 188.474 497.24C188.728 497.52 188.854 497.88 188.854 498.32C188.854 498.76 188.728 499.127 188.474 499.42C188.221 499.7 187.821 499.84 187.274 499.84ZM197.458 512.38C196.498 512.38 195.652 512.227 194.918 511.92C194.185 511.613 193.565 511.2 193.058 510.68C192.552 510.147 192.165 509.547 191.898 508.88C191.645 508.213 191.518 507.52 191.518 506.8V506.38C191.518 505.633 191.652 504.927 191.918 504.26C192.198 503.58 192.592 502.98 193.098 502.46C193.618 501.927 194.245 501.513 194.978 501.22C195.712 500.913 196.538 500.76 197.458 500.76C198.378 500.76 199.205 500.913 199.938 501.22C200.672 501.513 201.292 501.927 201.798 502.46C202.318 502.98 202.712 503.58 202.978 504.26C203.245 504.927 203.378 505.633 203.378 506.38V506.8C203.378 507.52 203.245 508.213 202.978 508.88C202.725 509.547 202.345 510.147 201.838 510.68C201.332 511.2 200.712 511.613 199.978 511.92C199.245 512.227 198.405 512.38 197.458 512.38ZM197.458 510C198.138 510 198.712 509.853 199.178 509.56C199.645 509.253 199.998 508.847 200.238 508.34C200.478 507.82 200.598 507.233 200.598 506.58C200.598 505.913 200.472 505.327 200.218 504.82C199.978 504.3 199.618 503.893 199.138 503.6C198.672 503.293 198.112 503.14 197.458 503.14C196.805 503.14 196.238 503.293 195.758 503.6C195.292 503.893 194.932 504.3 194.678 504.82C194.425 505.327 194.298 505.913 194.298 506.58C194.298 507.233 194.418 507.82 194.658 508.34C194.912 508.847 195.272 509.253 195.738 509.56C196.205 509.853 196.778 510 197.458 510ZM205.812 512V501.14H208.012V505.8H207.812C207.812 504.693 207.959 503.773 208.252 503.04C208.546 502.293 208.979 501.733 209.552 501.36C210.139 500.987 210.866 500.8 211.732 500.8H211.852C213.146 500.8 214.126 501.22 214.792 502.06C215.459 502.887 215.792 504.127 215.792 505.78V512H213.012V505.54C213.012 504.873 212.819 504.333 212.432 503.92C212.059 503.507 211.539 503.3 210.872 503.3C210.192 503.3 209.639 503.513 209.212 503.94C208.799 504.353 208.592 504.913 208.592 505.62V512H205.812Z" fill="white"/>
<path d="M1445.5 164C1444.95 164 1444.5 164.448 1444.5 165C1444.5 165.552 1444.95 166 1445.5 166V164ZM1497 165H1498C1498 164.448 1497.55 164 1497 164V165ZM1497 503V504C1497.55 504 1498 503.552 1498 503H1497ZM1447.79 502.293C1447.4 502.683 1447.4 503.317 1447.79 503.707L1454.16 510.071C1454.55 510.462 1455.18 510.462 1455.57 510.071C1455.96 509.681 1455.96 509.047 1455.57 508.657L1449.91 503L1455.57 497.343C1455.96 496.953 1455.96 496.319 1455.57 495.929C1455.18 495.538 1454.55 495.538 1454.16 495.929L1447.79 502.293ZM1445.5 166H1497V164H1445.5V166ZM1496 165V503H1498V165H1496ZM1497 502H1448.5V504H1497V502Z" fill="black"/>
<path d="M52.5 504C53.0523 504 53.5 503.552 53.5 503C53.5 502.448 53.0523 502 52.5 502V504ZM1 503H0C0 503.552 0.447716 504 1 504V503ZM1 165V164C0.447716 164 0 164.448 0 165H1ZM50.2071 165.707C50.5976 165.317 50.5976 164.683 50.2071 164.293L43.8431 157.929C43.4526 157.538 42.8195 157.538 42.4289 157.929C42.0384 158.319 42.0384 158.953 42.4289 159.343L48.0858 165L42.4289 170.657C42.0384 171.047 42.0384 171.681 42.4289 172.071C42.8195 172.462 43.4526 172.462 43.8431 172.071L50.2071 165.707ZM52.5 502H1V504H52.5V502ZM2 503V165H0V503H2ZM1 166H49.5V164H1V166Z" fill="black"/>
<defs>
<linearGradient id="paint0_linear_49_220" x1="143" y1="83" x2="143" y2="227" gradientUnits="userSpaceOnUse">
<stop stop-color="#FF585A"/>
<stop offset="1" stop-color="#A81BBD"/>
</linearGradient>
<linearGradient id="paint1_linear_49_220" x1="501" y1="102" x2="501" y2="215" gradientUnits="userSpaceOnUse">
<stop stop-color="#FF585A"/>
<stop offset="1" stop-color="#A81BBD"/>
</linearGradient>
<linearGradient id="paint2_linear_49_220" x1="927" y1="48" x2="927" y2="267" gradientUnits="userSpaceOnUse">
<stop stop-color="#FF585A"/>
<stop offset="1" stop-color="#A81BBD"/>
</linearGradient>
<linearGradient id="paint3_linear_49_220" x1="1321" y1="102" x2="1321" y2="230" gradientUnits="userSpaceOnUse">
<stop stop-color="#FF585A"/>
<stop offset="1" stop-color="#A81BBD"/>
</linearGradient>
<linearGradient id="paint4_linear_49_220" x1="1313.5" y1="457" x2="1313.5" y2="540" gradientUnits="userSpaceOnUse">
<stop stop-color="#FF585A"/>
<stop offset="1" stop-color="#A81BBD"/>
</linearGradient>
<linearGradient id="paint5_linear_49_220" x1="1043.5" y1="457" x2="1043.5" y2="540" gradientUnits="userSpaceOnUse">
<stop stop-color="#FF585A"/>
<stop offset="1" stop-color="#A81BBD"/>
</linearGradient>
<linearGradient id="paint6_linear_49_220" x1="774.5" y1="457" x2="774.5" y2="540" gradientUnits="userSpaceOnUse">
<stop stop-color="#FF585A"/>
<stop offset="1" stop-color="#A81BBD"/>
</linearGradient>
<linearGradient id="paint7_linear_49_220" x1="462" y1="366" x2="462" y2="630" gradientUnits="userSpaceOnUse">
<stop stop-color="#FF585A"/>
<stop offset="1" stop-color="#A81BBD"/>
</linearGradient>
<linearGradient id="paint8_linear_49_220" x1="165" y1="449" x2="165" y2="562" gradientUnits="userSpaceOnUse">
<stop stop-color="#FF585A"/>
<stop offset="1" stop-color="#A81BBD"/>
</linearGradient>
<clipPath id="clip0_49_220">
<rect width="41" height="56" fill="white" transform="translate(402 130)"/>
</clipPath>
</defs>
</svg>
