<svg xmlns="http://www.w3.org/2000/svg" xmlns:xlink="http://www.w3.org/1999/xlink" viewBox="0 0 185.46 341.63"><defs><style>.cls-1{fill:url(#linear-gradient);}.cls-2{fill:url(#linear-gradient-2);}.cls-3{fill:url(#linear-gradient-3);}.cls-4{fill:url(#linear-gradient-5);}.cls-5{fill:url(#linear-gradient-6);}.cls-6{fill:url(#linear-gradient-7);}.cls-7{fill:url(#linear-gradient-8);}.cls-8{fill:url(#linear-gradient-10);}</style><linearGradient id="linear-gradient" x1="1218.48" y1="366.39" x2="1329.37" y2="256.71" gradientTransform="matrix(-0.96, -0.28, -0.28, 0.96, 1369.13, 212.09)" gradientUnits="userSpaceOnUse"><stop offset="0" stop-color="#a445ee"/><stop offset="0.33" stop-color="#8200e8"/><stop offset="0.42" stop-color="#8c07dc"/><stop offset="0.59" stop-color="#a81bbd"/><stop offset="0.81" stop-color="#d53a8a"/><stop offset="1" stop-color="#ff585a"/></linearGradient><linearGradient id="linear-gradient-2" x1="1255.52" y1="363.49" x2="1374.24" y2="236.32" xlink:href="#linear-gradient"/><linearGradient id="linear-gradient-3" x1="1213.63" y1="158.27" x2="1345.61" y2="281.67" gradientTransform="matrix(-0.96, -0.28, -0.28, 0.96, 1369.13, 212.09)" gradientUnits="userSpaceOnUse"><stop offset="0" stop-color="#ff383b"/><stop offset="1" stop-color="#ffa1a3"/></linearGradient><linearGradient id="linear-gradient-5" x1="1181.16" y1="140.05" x2="1313.14" y2="263.44" xlink:href="#linear-gradient-3"/><linearGradient id="linear-gradient-6" x1="-125.2" y1="463.95" x2="-14.31" y2="354.26" gradientTransform="translate(279.94 -100.43) rotate(15.98)" xlink:href="#linear-gradient"/><linearGradient id="linear-gradient-7" x1="-88.17" y1="461.05" x2="30.56" y2="333.89" gradientTransform="translate(279.94 -100.43) rotate(15.98)" xlink:href="#linear-gradient"/><linearGradient id="linear-gradient-8" x1="-130.05" y1="255.83" x2="1.93" y2="379.22" gradientTransform="translate(279.94 -100.43) rotate(15.98)" xlink:href="#linear-gradient-3"/><linearGradient id="linear-gradient-10" x1="-162.51" y1="237.61" x2="-30.54" y2="360.99" gradientTransform="translate(279.94 -100.43) rotate(15.98)" xlink:href="#linear-gradient-3"/></defs><g id="Layer_2" data-name="Layer 2"><g id="Layer_1-2" data-name="Layer 1"><path class="cls-1" d="M40.68,47.35C21.25,58.13,34,110,47.38,134l36.95,66.62A21.4,21.4,0,0,1,76,229.75l-18.74,10.4L46.86,221.41,9.91,154.8A79.12,79.12,0,0,1,40.68,47.35Z"/><path class="cls-2" d="M9.91,154.8a79.06,79.06,0,0,1,1.44-79.09c-4.93,20,5,55.11,15.33,73.69l37,66.61a21.41,21.41,0,0,1,.12,20.54l-6.5,3.6L46.86,221.41Z"/><path class="cls-3" d="M40.68,47.35l66.62-37L126,0l10.39,18.74a21.41,21.41,0,0,1-8.34,29.12l-66.61,37A36.22,36.22,0,0,0,47.38,134C34,110,21.25,58.13,40.68,47.35Z"/><path class="cls-3" d="M40.68,47.35l66.62-37L126,0l10.39,18.74a21.41,21.41,0,0,1-8.34,29.12l-66.61,37A36.22,36.22,0,0,0,47.38,134C34,110,21.25,58.13,40.68,47.35Z"/><path class="cls-4" d="M41.31,68.85l76.41-42.4L135.3,16.7l1.12,2a21.41,21.41,0,0,1-8.34,29.12l-66.61,37a36.22,36.22,0,0,0-14.73,48h0c-6.73-12.6-13.17-32-15.27-49.31C33.15,76.83,36.28,71.63,41.31,68.85Z"/><path class="cls-5" d="M175.55,186.83c10.78,19.44-27.49,56.64-51.56,70l-66.61,37A21.42,21.42,0,0,0,49,322.9l10.39,18.73,18.74-10.39,66.61-36.95A79.12,79.12,0,0,0,175.55,186.83Z"/><path class="cls-6" d="M144.78,294.29a79.07,79.07,0,0,0,40.65-67.87c-6.41,19.59-33.44,44.1-52,54.41L66.81,317.78a21.39,21.39,0,0,0-11,17.36l3.6,6.49,18.74-10.39Z"/><path class="cls-7" d="M175.55,186.83l-37-66.61-10.39-18.73-18.74,10.39A21.43,21.43,0,0,0,101.13,141l37,66.61A36.21,36.21,0,0,1,124,256.81C148.06,243.47,186.33,206.27,175.55,186.83Z"/><path class="cls-7" d="M175.55,186.83l-37-66.61-10.39-18.73-18.74,10.39A21.43,21.43,0,0,0,101.13,141l37,66.61A36.21,36.21,0,0,1,124,256.81C148.06,243.47,186.33,206.27,175.55,186.83Z"/><path class="cls-8" d="M163.65,204.75l-42.4-76.43-9.74-17.57-2,1.13A21.43,21.43,0,0,0,101.13,141l37,66.61a36.22,36.22,0,0,1-12.89,48.49v0c12.38-7.13,28.11-20.15,39.06-33.75C166.34,215.83,166.43,209.77,163.65,204.75Z"/></g></g></svg>