<svg xmlns="http://www.w3.org/2000/svg" viewBox="0 0 192.54 335.22"><defs><style>.cls-1{fill:#fff;}</style></defs><g id="Layer_2" data-name="Layer 2"><g id="Layer_1-2" data-name="Layer 1"><path class="cls-1" d="M136.41,18.74l-1.13-2L126,0,107.28,10.4l-66.61,37A79,79,0,0,0,.1,112.59a79.91,79.91,0,0,0,.49,13.73s0,0,0,0c.05.4.11.81.16,1.21.11.8.24,1.6.37,2.4q.53,3,1.3,6.06c.18.69.36,1.38.56,2.06q.8,2.83,1.84,5.64c.22.61.45,1.21.69,1.81A78.72,78.72,0,0,0,9.9,154.8l37,66.61,10.39,18.74,6.5-3.6h0L76,229.76a21.42,21.42,0,0,0,8.34-29.13L47.37,134c-.64-1.16-1.28-2.38-1.91-3.66.42.84.84,1.65,1.26,2.44-.32-.64-.63-1.29-.91-2a0,0,0,0,0,0,0,35.19,35.19,0,0,1-2.43-8.12,29.68,29.68,0,0,1-.4-3.09q-.09-1-.12-2a.14.14,0,0,0,0-.09,36.16,36.16,0,0,1,1.91-12.69,37,37,0,0,1,1.46-3.65c.28-.61.57-1.2.89-1.79s.76-1.39,1.18-2.06c.63-1,1.31-2,2.05-3q.72-.94,1.53-1.86a34.71,34.71,0,0,1,2.54-2.61c.6-.55,1.22-1.09,1.86-1.6a35.44,35.44,0,0,1,5.19-3.5l66.61-36.95A21.42,21.42,0,0,0,136.41,18.74ZM36.89,109q-1-3.23-1.92-6.53C35.57,104.67,36.21,106.86,36.89,109Z"/><path class="cls-1" d="M192.53,220l0,1.28c-.05,1.28-.12,2.56-.22,3.83l-.12,1.27c-.08.85-.18,1.69-.29,2.54-.22,1.68-.5,3.36-.82,5-.17.86-.36,1.72-.55,2.58-.09.38-.19.77-.28,1.15-.32,1.31-.68,2.62-1.07,3.91-.1.33-.2.66-.31,1a79.25,79.25,0,0,1-4.79,11.8c-.19.38-.38.76-.58,1.13l-.6,1.13q-1.23,2.25-2.59,4.42c-.91,1.44-1.88,2.86-2.88,4.25-.51.69-1,1.38-1.55,2.06q-1.59,2-3.31,4c-.58.65-1.17,1.28-1.76,1.91s-1.21,1.25-1.83,1.86-1.1,1.07-1.67,1.6L167,277c-.63.58-1.28,1.15-1.93,1.71s-1.34,1.14-2,1.69-1.39,1.1-2.1,1.63-1.25.92-1.88,1.36l-.68.47c-.58.41-1.17.8-1.77,1.19l-.08.05c-.62.41-1.25.8-1.89,1.18l-.06,0c-.22.13-.43.27-.65.39-.68.41-1.37.8-2.06,1.19L85.27,324.82l-18.74,10.4-3.6-6.5-6.79-12.24a21.42,21.42,0,0,1,8.34-29.13l66.61-37c2.12-1.18,4.36-2.54,6.66-4.08-1.83,1.21-3.62,2.32-5.34,3.31,1-.61,2-1.27,2.89-2,.64-.48,1.26-1,1.85-1.5.28-.23.55-.47.82-.72a37.09,37.09,0,0,0,2.71-2.76c.46-.52.9-1.06,1.32-1.6.24-.3.47-.6.7-.91h0c.23-.31.46-.63.67-.95s.42-.61.61-.92l.05-.07c.2-.31.39-.63.58-.95s.3-.5.44-.76c.26-.46.51-.93.75-1.4.15-.29.29-.59.43-.89s.19-.41.28-.61.28-.63.41-.94.15-.37.22-.55c.15-.35.28-.71.41-1.07s.26-.72.37-1.09.24-.73.34-1.09.21-.74.3-1.1.19-.75.27-1.12c.15-.67.29-1.35.4-2,.05-.28.09-.56.13-.84.07-.5.13-1,.18-1.51s.07-.79.1-1.19,0-.58,0-.88a35.85,35.85,0,0,0-4.5-19l-36.95-66.61a21.42,21.42,0,0,1,8.34-29.13l2-1.13,16.71-9.26L145.7,113.8l37,66.62A78.34,78.34,0,0,1,192.53,220Z"/></g></g></svg>